<svg xmlns="http://www.w3.org/2000/svg" viewBox="0 0 245.64 65.56"><title>dOrg_4</title><path d="M52.59,0V51.54H38.18v-4.9A14.91,14.91,0,0,1,33.42,50a24.84,24.84,0,0,1-11.06,2.32h-1q-10.55,0-16.34-6a17,17,0,0,1-3.79-6A20.46,20.46,0,0,1,0,33.16V32a20,20,0,0,1,1.26-7,18.17,18.17,0,0,1,3.72-6Q10.69,13,21.24,13h.89A29.68,29.68,0,0,1,33,14.84a19.66,19.66,0,0,1,5.12,2.93V0ZM26.07,22.88q-6.09,0-8.91,3.26a9.57,9.57,0,0,0-1.67,3,10.5,10.5,0,0,0-.56,3.31v.2a10.22,10.22,0,0,0,.56,3.23,9.35,9.35,0,0,0,1.67,3q2.89,3.35,8.91,3.34h.82q5.87,0,8.91-3.27a8.69,8.69,0,0,0,2.45-6.33v-.2A9,9,0,0,0,35.8,26q-3-3.14-8.91-3.13Z" style="fill:#6c9"/><path d="M126.23,8.37a27.77,27.77,0,0,0-10.55-6.09A49.45,49.45,0,0,0,99.94.07H96.67q-12,0-20.06,4a22.65,22.65,0,0,0-10.25,9.6,23.16,23.16,0,0,0-2.89,11.37V27.1a23.16,23.16,0,0,0,2.89,11.37A22.81,22.81,0,0,0,76.61,48.2q8.1,4.15,20.06,4.16h3.27a47.77,47.77,0,0,0,15.67-2.28,28.11,28.11,0,0,0,10.62-6.3,21.61,21.61,0,0,0,5.24-7.87,24.65,24.65,0,0,0,1.67-8.81V25.05a24.66,24.66,0,0,0-1.67-8.85A21.72,21.72,0,0,0,126.23,8.37Z" style="fill:#fff"/><path d="M171.58,12.94h-.44a16.22,16.22,0,0,0-9.51,2.79A13.22,13.22,0,0,0,157.69,20v-6.2H143.36V51.54h14.48V31.45a9.19,9.19,0,0,1,1.78-5.95,6.2,6.2,0,0,1,5.13-2.22q3.27,0,4.57,2c.86,1.32,1.3,3.33,1.3,6.06v.54h14.93c0-.54.07-1.27.07-2.18V27.57q0-6.94-3.34-10.62Q178.49,12.95,171.58,12.94Z" style="fill:#fff"/><path d="M231.23,13.75v3.88a18.08,18.08,0,0,0-5.06-2.86A30.73,30.73,0,0,0,215,13h-.81a27.27,27.27,0,0,0-9.66,1.54,18.14,18.14,0,0,0-6.69,4.18,16.23,16.23,0,0,0-3.56,5.62,18.59,18.59,0,0,0-1.19,6.57v1.16a19.05,19.05,0,0,0,1.12,6.43,15.82,15.82,0,0,0,3.49,5.69q5.57,6.06,16.71,6.06h1a28.07,28.07,0,0,0,11.14-2,12.27,12.27,0,0,0,2.64-1.43,24.8,24.8,0,0,0,2-1.7v2.79q0,3.82-2.3,5.65c-1.83,1.55-4.61,2.32-8.32,2.32h-.82c-3.37,0-5.74-.37-7.13-1.09a3.23,3.23,0,0,1-1.19-.78,8.83,8.83,0,0,1-.74-1.06H195.42v.27A9.4,9.4,0,0,0,199.21,61q5.94,4.56,19.83,4.56h2.53q12.93,0,18.94-5.37,5.13-4.5,5.13-12.87V13.75Zm.14,18a8.16,8.16,0,0,1-.59,3.06A7.73,7.73,0,0,1,229,37.45c-2.08,1.9-5,2.86-8.84,2.86h-.89q-6,0-8.92-2.93a7.82,7.82,0,0,1-2.3-5.72v-.21a7.84,7.84,0,0,1,2.23-5.78q3-2.87,9-2.86h.81q5.73,0,8.77,2.79a7.74,7.74,0,0,1,2.52,5.85Z" style="fill:#fff"/><ellipse cx="98.81" cy="27.92" rx="16.09" ry="4"/><ellipse cx="98.81" cy="27.92" rx="16.09" ry="4" style="fill:none;stroke:#000;stroke-miterlimit:10;stroke-width:2px"/><path d="M91.32,44.56a1.44,1.44,0,0,0,1.44-1.48,1.09,1.09,0,0,0,0-.18c0-.46,0-.9-.1-1.32a5.47,5.47,0,0,0-.46-1.65,4.92,4.92,0,0,0-1-1.38A4.47,4.47,0,0,0,88,37.28a4.61,4.61,0,0,0-1.82.34,4.51,4.51,0,0,0-1.4.93,4.72,4.72,0,0,0-1,1.38,5.2,5.2,0,0,0-.46,1.65q-.07.63-.12,1.32a.86.86,0,0,1,0,.16,1.44,1.44,0,0,0,1.44,1.5Z"/><path d="M91,32.57a3.37,3.37,0,0,0-.68-1,3.19,3.19,0,0,0-1-.67,3.35,3.35,0,0,0-1.3-.24,3.38,3.38,0,0,0-1.3.24,3.31,3.31,0,0,0-1,.67,3.37,3.37,0,0,0-.68,1,3.12,3.12,0,0,0-.15.43h6.27A3.16,3.16,0,0,0,91,32.57Z"/><path d="M85,36.3a3.37,3.37,0,0,0,.68,1,3.31,3.31,0,0,0,1,.67,3.38,3.38,0,0,0,1.3.24,3.35,3.35,0,0,0,1.3-.24,3.19,3.19,0,0,0,1-.67,3.37,3.37,0,0,0,.68-1,3.61,3.61,0,0,0,.16-.42H84.88A3.52,3.52,0,0,0,85,36.3Z"/><path d="M91.37,34.44c0-.24,0-.47-.05-.69a3.72,3.72,0,0,0-.17-.75H84.88a3.73,3.73,0,0,0-.18.75q0,.33-.06.69l.06.68a4,4,0,0,0,.18.76h6.27a4,4,0,0,0,.17-.76C91.35,34.9,91.36,34.67,91.37,34.44Z"/><path d="M113,44.56a1.44,1.44,0,0,0,1.44-1.48,1.09,1.09,0,0,1,0-.18c0-.46-.06-.9-.11-1.32a5.18,5.18,0,0,0-.45-1.65,5,5,0,0,0-1-1.38,4.51,4.51,0,0,0-1.4-.93,5,5,0,0,0-3.64,0,4.55,4.55,0,0,0-1.41.93,4.92,4.92,0,0,0-1,1.38,5.47,5.47,0,0,0-.46,1.65c0,.42-.09.86-.11,1.32a.86.86,0,0,0,0,.16,1.44,1.44,0,0,0,1.44,1.5Z"/><path d="M112.64,32.57a3.37,3.37,0,0,0-.68-1,3.44,3.44,0,0,0-1-.67,3.38,3.38,0,0,0-1.3-.24,3.35,3.35,0,0,0-1.3.24,3.22,3.22,0,0,0-1.68,1.65,3.16,3.16,0,0,0-.16.43h6.27A3.12,3.12,0,0,0,112.64,32.57Z"/><path d="M106.68,36.3A3.22,3.22,0,0,0,108.36,38a3.35,3.35,0,0,0,1.3.24A3.38,3.38,0,0,0,111,38a3.44,3.44,0,0,0,1-.67,3.37,3.37,0,0,0,.68-1,3.52,3.52,0,0,0,.15-.42h-6.27A3.61,3.61,0,0,0,106.68,36.3Z"/><path d="M113,34.44q0-.36-.06-.69a3.72,3.72,0,0,0-.17-.75h-6.27a3.72,3.72,0,0,0-.17.75c0,.22,0,.45-.06.69s0,.46.06.68a4,4,0,0,0,.17.76h6.27a4,4,0,0,0,.17-.76C113,34.9,113,34.67,113,34.44Z"/><path d="M91.32,21.85a1.44,1.44,0,0,0,1.44-1.48,1.09,1.09,0,0,0,0-.18c0-.46,0-.9-.1-1.32a5.47,5.47,0,0,0-.46-1.65,4.92,4.92,0,0,0-1-1.38A4.47,4.47,0,0,0,88,14.57a4.61,4.61,0,0,0-1.82.34,4.51,4.51,0,0,0-1.4.93,4.72,4.72,0,0,0-1,1.38,5.2,5.2,0,0,0-.46,1.65q-.07.63-.12,1.32a.86.86,0,0,1,0,.16,1.44,1.44,0,0,0,1.44,1.5Z"/><path d="M91,9.86a3.37,3.37,0,0,0-.68-1,3.19,3.19,0,0,0-1-.67A3.35,3.35,0,0,0,88,8a3.38,3.38,0,0,0-1.3.24,3.31,3.31,0,0,0-1,.67,3.37,3.37,0,0,0-.68,1,3.12,3.12,0,0,0-.15.43h6.27A3.16,3.16,0,0,0,91,9.86Z"/><path d="M85,13.59a3.37,3.37,0,0,0,.68,1,3.31,3.31,0,0,0,1,.67,3.38,3.38,0,0,0,1.3.24,3.35,3.35,0,0,0,1.3-.24,3.19,3.19,0,0,0,1-.67,3.37,3.37,0,0,0,.68-1,3.16,3.16,0,0,0,.16-.43H84.88A3.12,3.12,0,0,0,85,13.59Z"/><path d="M91.37,11.72c0-.23,0-.46-.05-.68a3.72,3.72,0,0,0-.17-.75H84.88a3.73,3.73,0,0,0-.18.75l-.06.68q0,.36.06.69a3.73,3.73,0,0,0,.18.75h6.27a3.72,3.72,0,0,0,.17-.75C91.35,12.19,91.36,12,91.37,11.72Z"/><path d="M113,21.85a1.44,1.44,0,0,0,1.44-1.48,1.09,1.09,0,0,1,0-.18c0-.46-.06-.9-.11-1.32a5.18,5.18,0,0,0-.45-1.65,5,5,0,0,0-1-1.38,4.51,4.51,0,0,0-1.4-.93,5,5,0,0,0-3.64,0,4.55,4.55,0,0,0-1.41.93,4.92,4.92,0,0,0-1,1.38,5.47,5.47,0,0,0-.46,1.65c0,.42-.09.86-.11,1.32a.86.86,0,0,0,0,.16,1.44,1.44,0,0,0,1.44,1.5Z"/><path d="M112.64,9.86a3.37,3.37,0,0,0-.68-1,3.44,3.44,0,0,0-1-.67,3.38,3.38,0,0,0-1.3-.24,3.35,3.35,0,0,0-1.3.24,3.22,3.22,0,0,0-1.68,1.65,3.16,3.16,0,0,0-.16.43h6.27A3.12,3.12,0,0,0,112.64,9.86Z"/><path d="M106.68,13.59a3.22,3.22,0,0,0,1.68,1.65,3.35,3.35,0,0,0,1.3.24,3.38,3.38,0,0,0,1.3-.24,3.44,3.44,0,0,0,1-.67,3.37,3.37,0,0,0,.68-1,3.12,3.12,0,0,0,.15-.43h-6.27A3.16,3.16,0,0,0,106.68,13.59Z"/><path d="M113,11.72c0-.23,0-.46-.06-.68a3.72,3.72,0,0,0-.17-.75h-6.27a3.72,3.72,0,0,0-.17.75c0,.22,0,.45-.06.68s0,.47.06.69a3.72,3.72,0,0,0,.17.75h6.27a3.72,3.72,0,0,0,.17-.75Q113,12.08,113,11.72Z"/></svg>