<svg xmlns="http://www.w3.org/2000/svg" viewBox="0 0 168.13 75.99"><title>dOrg_1</title><path d="M79.73,17.22a24.32,24.32,0,0,0-1.91-6.5A19.66,19.66,0,0,0,74.1,5.21a17.39,17.39,0,0,0-5.55-3.8A18,18,0,0,0,61.27,0a18,18,0,0,0-7.33,1.41,17.39,17.39,0,0,0-5.5,3.8,19.48,19.48,0,0,0-3.73,5.51,24,24,0,0,0-1.9,6.5c-.22,1.65-.39,3.56-.5,5.71s-.16,4.37-.16,6.66.05,4.53.16,6.71.28,4.09.5,5.75q1.06,8,6,12.62a17.55,17.55,0,0,0,12.46,4.6,17.54,17.54,0,0,0,12.45-4.6q4.94-4.59,6-12.62c.22-1.66.38-3.57.49-5.75s.17-4.42.17-6.71-.06-4.51-.17-6.66S80,18.87,79.73,17.22Zm-5,19q-.21,3.24-.54,5.8a18.32,18.32,0,0,1-1,3.89,13.1,13.1,0,0,1-2.32,3.85A12.12,12.12,0,0,1,61.27,54a12.28,12.28,0,0,1-5.71-1.2,12.59,12.59,0,0,1-3.85-3,12.89,12.89,0,0,1-2.32-3.85,17.8,17.8,0,0,1-1-3.89,53,53,0,0,1-.57-5.8c-.12-2.15-.17-4.35-.17-6.62s0-4.47.17-6.62a53,53,0,0,1,.57-5.79,16.81,16.81,0,0,1,1.29-4.39A13.48,13.48,0,0,1,52.2,9a12,12,0,0,1,3.85-2.69,14.23,14.23,0,0,1,10.43,0A12,12,0,0,1,70.33,9a13.51,13.51,0,0,1,2.57,3.85,17.17,17.17,0,0,1,1.28,4.39q.33,2.57.54,5.79t.2,6.62C74.92,31.9,74.85,34.1,74.72,36.25Z" style="fill:#fff"/><path d="M121,20.2a13.54,13.54,0,0,0-4.64-2.82,16.75,16.75,0,0,0-5.83-1,13.72,13.72,0,0,0-6.46,1.36l-1.9,1a3.94,3.94,0,0,1-1.74.41,1.68,1.68,0,0,1-1.16-.45c-.33-.31-.64-.6-.91-.87a1.66,1.66,0,0,0-1.16-.58H95.87a1.57,1.57,0,0,0-1.16.49,1.6,1.6,0,0,0-.5,1.16V57a1.6,1.6,0,0,0,.5,1.16,1.57,1.57,0,0,0,1.16.49h1.57A1.67,1.67,0,0,0,99.09,57V31.29a9.84,9.84,0,0,1,.83-4,9.68,9.68,0,0,1,2.24-3.18A9.92,9.92,0,0,1,105.51,22a11.49,11.49,0,0,1,4.18-.75q5,0,7.78,2.61a8.58,8.58,0,0,1,2.82,6.58,1.69,1.69,0,0,0,1.65,1.66h1.57a1.71,1.71,0,0,0,1.66-1.66,14.71,14.71,0,0,0-1.12-5.83A13,13,0,0,0,121,20.2Z" style="fill:#fff"/><path d="M167.63,17.71a1.59,1.59,0,0,0-1.16-.49h-1.32a1.64,1.64,0,0,0-1.16.58l-.91.87a1.68,1.68,0,0,1-1.16.45,3.2,3.2,0,0,1-1.62-.41c-.47-.28-1-.6-1.69-1a11.88,11.88,0,0,0-6.13-1.36,14.48,14.48,0,0,0-6,1.24A15.83,15.83,0,0,0,141.64,21a16.94,16.94,0,0,0-3.36,5,18.73,18.73,0,0,0-1.53,6.13c-.11,1.65-.16,3.58-.16,5.79s0,4.14.16,5.79a18.73,18.73,0,0,0,1.53,6.13,16.94,16.94,0,0,0,3.36,5,15.83,15.83,0,0,0,4.84,3.35,14.48,14.48,0,0,0,6,1.24,11.73,11.73,0,0,0,2.77-.33c.91-.22,1.76-.45,2.53-.7s1.46-.49,2.07-.71a4.7,4.7,0,0,1,1.57-.33c1.21,0,1.82.69,1.82,2.07v1.66a10.5,10.5,0,0,1-.66,3.68,9.63,9.63,0,0,1-2,3.19,9.87,9.87,0,0,1-3.1,2.27,9.46,9.46,0,0,1-4.14.87,10.72,10.72,0,0,1-3.81-.62,9.83,9.83,0,0,1-2.81-1.57,8.75,8.75,0,0,1-1.9-2.15,12,12,0,0,1-1.16-2.36,4,4,0,0,0-.67-1.16,1.84,1.84,0,0,0-1.48-.5h-1.33c-1.27,0-1.77.64-1.49,1.91a13.39,13.39,0,0,0,2,4.92,14.27,14.27,0,0,0,7.78,5.71,16.82,16.82,0,0,0,4.84.71,14.55,14.55,0,0,0,6-1.2,14.3,14.3,0,0,0,7.66-8,15.41,15.41,0,0,0,1.08-5.71V18.87A1.6,1.6,0,0,0,167.63,17.71Zm-4.55,26a18.92,18.92,0,0,1-.75,3.56,11.58,11.58,0,0,1-1.74,3.52,9.07,9.07,0,0,1-7.69,3.77,10.8,10.8,0,0,1-5.05-1.08,10.17,10.17,0,0,1-3.36-2.69,11.15,11.15,0,0,1-1.9-3.52,17,17,0,0,1-.79-3.56,45.73,45.73,0,0,1-.33-5.79,45.73,45.73,0,0,1,.33-5.79,17.18,17.18,0,0,1,.79-3.56,11.26,11.26,0,0,1,1.9-3.52,10.41,10.41,0,0,1,3.31-2.69,10.79,10.79,0,0,1,5.1-1.08A9.07,9.07,0,0,1,160.59,25a11.69,11.69,0,0,1,1.74,3.52,19.09,19.09,0,0,1,.75,3.56c.16,1.71.25,3.64.25,5.79S163.24,42,163.08,43.7Z" style="fill:#fff"/><path d="M30.18,41.84a5.88,5.88,0,0,1-1.59-4.35,5.89,5.89,0,0,1,1.59-4.36,6.56,6.56,0,0,1,1.37-1V1.74A1.59,1.59,0,0,0,31.06.58,1.62,1.62,0,0,0,29.9.08H28.32a1.58,1.58,0,0,0-1.15.5,1.56,1.56,0,0,0-.5,1.16V16.39A2,2,0,0,1,26.09,18a2.31,2.31,0,0,1-1.49.46,3,3,0,0,1-1.33-.33c-.44-.22-1-.46-1.65-.71-.36-.13-.76-.26-1.19-.38,0,.14,0,.34,0,.73a5.72,5.72,0,0,1-1.76,3.72,5.88,5.88,0,0,1-4.35,1.59,5.92,5.92,0,0,1-4.36-1.59A5.83,5.83,0,0,1,8.27,18.4a13,13,0,0,0-3.62,2.51A14,14,0,0,0,1.82,25,15.71,15.71,0,0,0,.46,29.9c0,.11,0,.24,0,.35-.1.62-.19,1.24-.24,1.87C.11,33.17.06,34.34,0,35.62,0,36.4,0,37.19,0,38s0,1.69.05,2.53c0,1.16.07,2.23.13,3.19,0,.58.12,1.14.21,1.7,0,.22,0,.45.07.67A15.78,15.78,0,0,0,1.82,51a13.83,13.83,0,0,0,2.83,4.07,13,13,0,0,0,3.78,2.6,5.79,5.79,0,0,1,1.65-3A5.88,5.88,0,0,1,14.43,53a5.92,5.92,0,0,1,4.36,1.59,5.8,5.8,0,0,1,1.75,3.72c0,.16,0,.28,0,.38A11.38,11.38,0,0,0,22,58.07c.67-.36,1.23-.68,1.7-1a3.19,3.19,0,0,1,1.61-.41,1.62,1.62,0,0,1,1.16.46c.33.3.64.59.91.86a1.68,1.68,0,0,0,1.16.58H29.9a1.61,1.61,0,0,0,1.16-.49A1.59,1.59,0,0,0,31.55,57V42.87A6.56,6.56,0,0,1,30.18,41.84ZM7.71,38.22a3.15,3.15,0,0,1-1,2.07,3.26,3.26,0,0,1-2.42.88,3.27,3.27,0,0,1-2.42-.88,3.19,3.19,0,0,1-1-2.07,4.18,4.18,0,0,1,0-1,3.19,3.19,0,0,1,1-2.06,3.28,3.28,0,0,1,2.42-.89,3.26,3.26,0,0,1,2.42.89,3.15,3.15,0,0,1,1,2.06A4.18,4.18,0,0,1,7.71,38.22Zm3.34-11.61a3.2,3.2,0,0,1,1-2.06,3.26,3.26,0,0,1,2.42-.89,3.28,3.28,0,0,1,2.42.89,3.19,3.19,0,0,1,1,2.06,4.18,4.18,0,0,1,0,1,3.19,3.19,0,0,1-1,2.07,3.27,3.27,0,0,1-2.42.88A3.26,3.26,0,0,1,12,29.68a3.2,3.2,0,0,1-1-2.07A4.18,4.18,0,0,1,11.05,26.61Zm6.79,22.82a3.19,3.19,0,0,1-1,2.07,3.27,3.27,0,0,1-2.42.88A3.26,3.26,0,0,1,12,51.5a3.2,3.2,0,0,1-1-2.07,4.18,4.18,0,0,1,0-1,3.2,3.2,0,0,1,1-2.06,3.26,3.26,0,0,1,2.42-.89,3.28,3.28,0,0,1,2.42.89,3.19,3.19,0,0,1,1,2.06A4.18,4.18,0,0,1,17.84,49.43Zm-3.52-2.68c0-7.74-.68-8.65-6.49-8.65,5.81,0,6.49-.91,6.49-8.65,0,7.74.68,8.65,6.49,8.65C15,38.1,14.32,39,14.32,46.75ZM27.6,38.22a3.2,3.2,0,0,1-1,2.07,3.26,3.26,0,0,1-2.42.88,3.27,3.27,0,0,1-2.42-.88,3.19,3.19,0,0,1-1-2.07,4.18,4.18,0,0,1,0-1,3.19,3.19,0,0,1,1-2.06,3.28,3.28,0,0,1,2.42-.89,3.26,3.26,0,0,1,2.42.89,3.2,3.2,0,0,1,1,2.06A4.18,4.18,0,0,1,27.6,38.22Z" style="fill:#5cba9c"/></svg>