<svg xmlns="http://www.w3.org/2000/svg" viewBox="0 0 179.64 65.56"><title>dOrg_2</title><path d="M38.46,0V51.54H27.92v-4.9A11.62,11.62,0,0,1,24.44,50a14.18,14.18,0,0,1-8.09,2.32h-.71a13.8,13.8,0,0,1-12-6,18.74,18.74,0,0,1-2.77-6A27.48,27.48,0,0,1,0,33.16V32a26.83,26.83,0,0,1,.92-7,20.27,20.27,0,0,1,2.72-6A13.7,13.7,0,0,1,15.54,13h.65a16.58,16.58,0,0,1,7.93,1.84,14.4,14.4,0,0,1,3.75,2.93V0ZM19.07,22.88c-3,0-5.15,1.09-6.52,3.26a10.69,10.69,0,0,0-1.22,3,13.57,13.57,0,0,0-.41,3.31v.2a13.18,13.18,0,0,0,.41,3.23,10.46,10.46,0,0,0,1.22,3,7.16,7.16,0,0,0,6.52,3.34h.59A7.38,7.38,0,0,0,26.18,39,10.62,10.62,0,0,0,28,32.68v-.2A11,11,0,0,0,26.18,26a7.48,7.48,0,0,0-6.52-3.13Z" style="fill:#6c9"/><path d="M72.89.07A27.37,27.37,0,0,1,84.41,2.28a20.09,20.09,0,0,1,7.71,6.09A23.43,23.43,0,0,1,96,16.2a32.47,32.47,0,0,1,1.22,8.85V27.1A32.45,32.45,0,0,1,96,35.91a23.35,23.35,0,0,1-3.83,7.87,20.53,20.53,0,0,1-7.77,6.3,26.38,26.38,0,0,1-11.46,2.28H70.5q-8.74,0-14.66-4.16a20.41,20.41,0,0,1-7.5-9.73A30.15,30.15,0,0,1,46.22,27.1V25.05a30.15,30.15,0,0,1,2.12-11.37,20.12,20.12,0,0,1,7.5-9.6q5.86-4,14.66-4Z" style="fill:#fff"/><path d="M104.84,51.54V13.75h10.48V20a12.73,12.73,0,0,1,2.88-4.22,9.75,9.75,0,0,1,7-2.79h.33a9,9,0,0,1,7.82,4q2.44,3.68,2.45,10.62v2.11c0,.91,0,1.64-.06,2.18H124.77v-.54a14.54,14.54,0,0,0-1-6.06,3.39,3.39,0,0,0-3.34-2,4.12,4.12,0,0,0-3.75,2.22,11.77,11.77,0,0,0-1.3,5.95V51.54Z" style="fill:#fff"/><path d="M160.19,65.56q-10.16,0-14.5-4.56a10.91,10.91,0,0,1-2.77-7.83V52.9h11.24a8,8,0,0,0,.55,1.06,2.44,2.44,0,0,0,.86.78c1,.72,2.76,1.09,5.22,1.09h.6q4.06,0,6.08-2.32,1.68-1.83,1.68-5.65V45.07a20.09,20.09,0,0,1-1.49,1.7,8.56,8.56,0,0,1-1.93,1.43,15.81,15.81,0,0,1-8.15,2h-.76q-8.15,0-12.22-6.06a17.61,17.61,0,0,1-2.55-5.69,25.37,25.37,0,0,1-.82-6.43V30.91a24.68,24.68,0,0,1,.87-6.57,17.81,17.81,0,0,1,2.61-5.62,13.48,13.48,0,0,1,4.89-4.18A15.16,15.16,0,0,1,156.66,13h.6a17.14,17.14,0,0,1,8.15,1.77,12.85,12.85,0,0,1,3.69,2.86V13.75h10.54V47.32q0,8.37-3.75,12.87Q171.5,65.56,162,65.56Zm.16-42.75q-4.4,0-6.57,2.86a9.64,9.64,0,0,0-1.63,5.78v.21a9.43,9.43,0,0,0,1.69,5.72,7.58,7.58,0,0,0,6.51,2.93H161a7.81,7.81,0,0,0,6.46-2.86,8.25,8.25,0,0,0,1.3-2.66,10.94,10.94,0,0,0,.44-3.06v-.28a9.28,9.28,0,0,0-1.85-5.85A7.71,7.71,0,0,0,161,22.81Z" style="fill:#fff"/><path d="M74.92,31.6a5,5,0,0,0-7.43,0,4.73,4.73,0,0,0,0-7.27,5,5,0,0,0,7.43,0A4.73,4.73,0,0,0,74.92,31.6Z"/><path d="M74.92,31.6a5,5,0,0,0-7.43,0,4.73,4.73,0,0,0,0-7.27,5,5,0,0,0,7.43,0A4.73,4.73,0,0,0,74.92,31.6Z" style="fill:none;stroke:#000;stroke-miterlimit:10"/><path d="M64.62,42.59a1.26,1.26,0,0,0,1.26-1.3v-.16c0-.41,0-.79-.1-1.16a4.46,4.46,0,0,0-.4-1.45,4.1,4.1,0,0,0-.84-1.21,3.84,3.84,0,0,0-1.23-.82,4.42,4.42,0,0,0-3.2,0,3.63,3.63,0,0,0-1.23.82A4.1,4.1,0,0,0,58,38.52,4.48,4.48,0,0,0,57.63,40c0,.37-.08.75-.1,1.16a.61.61,0,0,1,0,.14,1.27,1.27,0,0,0,1.27,1.32Z"/><path d="M64.33,32.05a2.89,2.89,0,0,0-.6-.86,2.67,2.67,0,0,0-.88-.59,3,3,0,0,0-1.14-.21,2.9,2.9,0,0,0-1.14.21,2.57,2.57,0,0,0-.88.59,2.89,2.89,0,0,0-.6.86,2.79,2.79,0,0,0-.14.37h5.52C64.42,32.3,64.38,32.17,64.33,32.05Z"/><path d="M59.09,35.33a3,3,0,0,0,.6.86,2.72,2.72,0,0,0,.88.59,2.9,2.9,0,0,0,1.14.21,3,3,0,0,0,1.14-.21,2.83,2.83,0,0,0,.88-.59,3,3,0,0,0,.6-.86c0-.12.09-.25.14-.38H59A2.46,2.46,0,0,0,59.09,35.33Z"/><path d="M64.66,33.69c0-.21,0-.41,0-.6a5,5,0,0,0-.15-.67H59a3.82,3.82,0,0,0-.15.67c0,.19,0,.39,0,.6s0,.41,0,.6A3.52,3.52,0,0,0,59,35h5.52a4.54,4.54,0,0,0,.15-.66C64.64,34.1,64.65,33.89,64.66,33.69Z"/><path d="M83.65,42.59a1.26,1.26,0,0,0,1.26-1.3v-.16c0-.41,0-.79-.1-1.16a4.46,4.46,0,0,0-.4-1.45,4.1,4.1,0,0,0-.84-1.21,3.84,3.84,0,0,0-1.23-.82,4.42,4.42,0,0,0-3.2,0,3.63,3.63,0,0,0-1.23.82,4.1,4.1,0,0,0-.84,1.21A4.74,4.74,0,0,0,76.66,40c0,.37-.08.75-.1,1.16a.61.61,0,0,1,0,.14,1.27,1.27,0,0,0,1.27,1.32Z"/><path d="M83.36,32.05a2.89,2.89,0,0,0-.6-.86,2.67,2.67,0,0,0-.88-.59,3,3,0,0,0-1.14-.21,2.9,2.9,0,0,0-1.14.21,2.57,2.57,0,0,0-.88.59,2.89,2.89,0,0,0-.6.86,2.79,2.79,0,0,0-.14.37H83.5C83.45,32.3,83.41,32.17,83.36,32.05Z"/><path d="M78.12,35.33a3,3,0,0,0,.6.86,2.72,2.72,0,0,0,.88.59,2.9,2.9,0,0,0,1.14.21,3,3,0,0,0,1.14-.21,2.83,2.83,0,0,0,.88-.59,3,3,0,0,0,.6-.86c0-.12.09-.25.14-.38H78A2.46,2.46,0,0,0,78.12,35.33Z"/><path d="M83.69,33.69c0-.21,0-.41,0-.6a5,5,0,0,0-.15-.67H78a3.82,3.82,0,0,0-.15.67c0,.19,0,.39,0,.6s0,.41,0,.6A3.52,3.52,0,0,0,78,35H83.5a4.54,4.54,0,0,0,.15-.66C83.67,34.1,83.68,33.89,83.69,33.69Z"/><path d="M64.62,22.62a1.26,1.26,0,0,0,1.26-1.3v-.16c0-.4,0-.79-.1-1.15a4.52,4.52,0,0,0-.4-1.46,4.1,4.1,0,0,0-.84-1.21,3.84,3.84,0,0,0-1.23-.82,4.42,4.42,0,0,0-3.2,0,3.63,3.63,0,0,0-1.23.82A4.1,4.1,0,0,0,58,18.55,4.53,4.53,0,0,0,57.63,20c0,.36-.08.75-.1,1.15a.76.76,0,0,1,0,.15,1.27,1.27,0,0,0,1.27,1.31Z"/><path d="M64.33,12.08a3,3,0,0,0-.6-.86,2.83,2.83,0,0,0-.88-.59,3,3,0,0,0-1.14-.21,2.9,2.9,0,0,0-1.14.21,2.72,2.72,0,0,0-.88.59,3,3,0,0,0-.6.86,2.46,2.46,0,0,0-.14.38h5.52C64.42,12.33,64.38,12.2,64.33,12.08Z"/><path d="M59.09,15.36a2.89,2.89,0,0,0,.6.86,2.57,2.57,0,0,0,.88.59,2.9,2.9,0,0,0,1.14.21,3,3,0,0,0,1.14-.21,2.67,2.67,0,0,0,.88-.59,2.89,2.89,0,0,0,.6-.86c0-.12.09-.25.14-.37H59A2.79,2.79,0,0,0,59.09,15.36Z"/><path d="M64.66,13.72c0-.2,0-.41,0-.6a4.54,4.54,0,0,0-.15-.66H59a3.52,3.52,0,0,0-.15.66c0,.19,0,.4,0,.6s0,.41,0,.6A3.82,3.82,0,0,0,59,15h5.52a5,5,0,0,0,.15-.67C64.64,14.13,64.65,13.93,64.66,13.72Z"/><path d="M83.65,22.62a1.26,1.26,0,0,0,1.26-1.3v-.16c0-.4,0-.79-.1-1.15a4.52,4.52,0,0,0-.4-1.46,4.1,4.1,0,0,0-.84-1.21,3.84,3.84,0,0,0-1.23-.82,4.42,4.42,0,0,0-3.2,0,3.63,3.63,0,0,0-1.23.82,4.1,4.1,0,0,0-.84,1.21A4.8,4.8,0,0,0,76.66,20c0,.36-.08.75-.1,1.15a.76.76,0,0,1,0,.15,1.27,1.27,0,0,0,1.27,1.31Z"/><path d="M83.36,12.08a3,3,0,0,0-.6-.86,2.83,2.83,0,0,0-.88-.59,3,3,0,0,0-1.14-.21,2.9,2.9,0,0,0-1.14.21,2.72,2.72,0,0,0-.88.59,3,3,0,0,0-.6.86,2.46,2.46,0,0,0-.14.38H83.5C83.45,12.33,83.41,12.2,83.36,12.08Z"/><path d="M78.12,15.36a2.89,2.89,0,0,0,.6.86,2.57,2.57,0,0,0,.88.59,2.9,2.9,0,0,0,1.14.21,3,3,0,0,0,1.14-.21,2.67,2.67,0,0,0,.88-.59,2.89,2.89,0,0,0,.6-.86c0-.12.09-.25.14-.37H78A2.79,2.79,0,0,0,78.12,15.36Z"/><path d="M83.69,13.72c0-.2,0-.41,0-.6a4.54,4.54,0,0,0-.15-.66H78a3.52,3.52,0,0,0-.15.66c0,.19,0,.4,0,.6s0,.41,0,.6A3.82,3.82,0,0,0,78,15H83.5a5,5,0,0,0,.15-.67C83.67,14.13,83.68,13.93,83.69,13.72Z"/></svg>