<svg xmlns="http://www.w3.org/2000/svg" viewBox="0 0 163.04 73.61"><title>dOrg_6</title><path d="M15.41,57.56a14,14,0,0,1-5.82-1.21A15,15,0,0,1,4.9,53.1a16.18,16.18,0,0,1-3.25-4.85A18,18,0,0,1,.16,42.31C.05,40.7,0,38.83,0,36.69s.05-4,.16-5.62a17.9,17.9,0,0,1,1.49-5.94A16.11,16.11,0,0,1,4.9,20.27,15.16,15.16,0,0,1,9.59,17a14.17,14.17,0,0,1,5.82-1.21,13.61,13.61,0,0,1,3.25.33,19,19,0,0,1,2.29.68c.64.24,1.18.47,1.61.68a2.85,2.85,0,0,0,1.28.32,2.32,2.32,0,0,0,1.45-.44,1.9,1.9,0,0,0,.56-1.57V1.61A1.55,1.55,0,0,1,26.33.48,1.55,1.55,0,0,1,27.45,0H29A1.53,1.53,0,0,1,30.1.48a1.55,1.55,0,0,1,.48,1.13V55.15A1.66,1.66,0,0,1,29,56.76H27.7a1.62,1.62,0,0,1-1.13-.57c-.27-.26-.56-.55-.88-.84a1.64,1.64,0,0,0-1.13-.44,3,3,0,0,0-1.56.4c-.46.27-1,.58-1.65.92a12.16,12.16,0,0,1-2.32.93A13.61,13.61,0,0,1,15.41,57.56Zm.4-4.74a9.07,9.07,0,0,0,4.5-1,9.21,9.21,0,0,0,3-2.61A11.69,11.69,0,0,0,25,45.76a18.67,18.67,0,0,0,.72-3.45c.16-1.66.24-3.54.24-5.62s-.08-4-.24-5.62A18.93,18.93,0,0,0,25,27.61a11.81,11.81,0,0,0-1.69-3.41,9.21,9.21,0,0,0-3-2.61,9.07,9.07,0,0,0-4.5-1,10.55,10.55,0,0,0-4.89,1A10,10,0,0,0,7.67,24.2a10.9,10.9,0,0,0-1.85,3.41,16.32,16.32,0,0,0-.76,3.46,43.18,43.18,0,0,0-.32,5.62,43.29,43.29,0,0,0,.32,5.62,16.1,16.1,0,0,0,.76,3.45,10.79,10.79,0,0,0,1.85,3.41,10.17,10.17,0,0,0,3.21,2.61A10.5,10.5,0,0,0,15.81,52.82Z" style="fill:#5cba9c"/><path d="M116.64,29.46a8.31,8.31,0,0,0-2.73-6.38,10.67,10.67,0,0,0-7.55-2.53,11.28,11.28,0,0,0-4,.72,9.85,9.85,0,0,0-3.25,2,9.53,9.53,0,0,0-3,7V55.15a1.53,1.53,0,0,1-.48,1.12,1.56,1.56,0,0,1-1.13.49H93a1.56,1.56,0,0,1-1.13-.49,1.53,1.53,0,0,1-.48-1.12V18.22a1.53,1.53,0,0,1,.48-1.12A1.55,1.55,0,0,1,93,16.62h1.28a1.67,1.67,0,0,1,1.13.56c.26.27.56.55.88.84a1.57,1.57,0,0,0,1.12.44,3.72,3.72,0,0,0,1.69-.4l1.84-.92a13.13,13.13,0,0,1,2.53-.92,14.49,14.49,0,0,1,3.74-.41,16.29,16.29,0,0,1,5.66,1,13.17,13.17,0,0,1,4.49,2.73,12.59,12.59,0,0,1,3,4.29,14.28,14.28,0,0,1,1.08,5.66,1.57,1.57,0,0,1-.48,1.13,1.53,1.53,0,0,1-1.12.48h-1.53a1.55,1.55,0,0,1-1.12-.48A1.57,1.57,0,0,1,116.64,29.46Z" style="fill:#fff"/><path d="M161.43,16.62a1.57,1.57,0,0,1,1.13.48,1.53,1.53,0,0,1,.48,1.12V59.16a14.87,14.87,0,0,1-1,5.54,13.84,13.84,0,0,1-2.93,4.62,13.94,13.94,0,0,1-10.31,4.29,16.54,16.54,0,0,1-4.7-.68,13.94,13.94,0,0,1-7.54-5.54,12.83,12.83,0,0,1-2-4.77c-.27-1.24.21-1.85,1.44-1.85h1.29a1.79,1.79,0,0,1,1.44.48,4.11,4.11,0,0,1,.65,1.12,11.49,11.49,0,0,0,1.12,2.29,8.48,8.48,0,0,0,1.85,2.09,9.37,9.37,0,0,0,2.73,1.52,10.23,10.23,0,0,0,3.69.61,9.08,9.08,0,0,0,4-.85,9.56,9.56,0,0,0,3-2.2,9.46,9.46,0,0,0,1.89-3.09,10.2,10.2,0,0,0,.64-3.58v-1.6q0-2-1.77-2a4.7,4.7,0,0,0-1.52.32c-.59.22-1.26.44-2,.68s-1.56.47-2.45.69a11.55,11.55,0,0,1-2.68.32,14,14,0,0,1-5.82-1.21,15,15,0,0,1-4.7-3.25,16.18,16.18,0,0,1-3.25-4.85,18,18,0,0,1-1.49-5.94c-.11-1.61-.16-3.48-.16-5.62s.05-4,.16-5.62a17.9,17.9,0,0,1,1.49-5.94,16.11,16.11,0,0,1,3.25-4.86,15.2,15.2,0,0,1,4.7-3.25,14.11,14.11,0,0,1,5.82-1.21,13.08,13.08,0,0,1,3.61.41,11.66,11.66,0,0,1,2.33.92c.64.35,1.19.65,1.64.92a3,3,0,0,0,1.57.4,1.59,1.59,0,0,0,1.12-.44c.32-.29.61-.57.88-.84a1.65,1.65,0,0,1,1.13-.56Zm-13.16,3.93a10.54,10.54,0,0,0-4.94,1,10.17,10.17,0,0,0-3.21,2.61,10.9,10.9,0,0,0-1.85,3.41,17,17,0,0,0-.76,3.46,45,45,0,0,0-.32,5.62,45.14,45.14,0,0,0,.32,5.62,16.73,16.73,0,0,0,.76,3.45,10.79,10.79,0,0,0,1.85,3.41,10,10,0,0,0,3.25,2.61,10.59,10.59,0,0,0,4.9,1,9.06,9.06,0,0,0,4.49-1,9.21,9.21,0,0,0,3-2.61,11.69,11.69,0,0,0,1.69-3.41,18.67,18.67,0,0,0,.72-3.45c.16-1.66.24-3.54.24-5.62s-.08-4-.24-5.62a18.93,18.93,0,0,0-.72-3.46,11.81,11.81,0,0,0-1.69-3.41,9.21,9.21,0,0,0-3-2.61A9.06,9.06,0,0,0,148.27,20.55Z" style="fill:#fff"/><path d="M78.07,22.26q-.16-3.12-.48-5.54a23.41,23.41,0,0,0-1.85-6.3,18.83,18.83,0,0,0-3.61-5.34,16.63,16.63,0,0,0-5.38-3.69A17.5,17.5,0,0,0,59.69,0a17.44,17.44,0,0,0-7.11,1.36,16.78,16.78,0,0,0-5.34,3.69,18.83,18.83,0,0,0-3.61,5.34,23.39,23.39,0,0,0-1.84,6.3q-.33,2.41-.49,5.54c-.1,2.09-.16,4.24-.16,6.46s.06,4.39.16,6.51.27,4,.49,5.58q1,7.78,5.82,12.24A17,17,0,0,0,59.69,57.5a17,17,0,0,0,12.08-4.45q4.77-4.45,5.82-12.24.31-2.41.48-5.58c.11-2.12.16-4.28.16-6.51S78.18,24.35,78.07,22.26ZM53.83,43.05H48.65a1.13,1.13,0,0,1-1.13-1.17.57.57,0,0,0,0-.13c0-.36,0-.7.09-1A4.13,4.13,0,0,1,48,39.43a3.82,3.82,0,0,1,.75-1.07,3.24,3.24,0,0,1,1.06-.71,3.17,3.17,0,0,1-.34-.28,2.61,2.61,0,0,1-.54-.77c0-.11-.08-.22-.12-.33a3,3,0,0,1-.13-.59c0-.17,0-.35,0-.53s0-.37,0-.54a3,3,0,0,1,.13-.59c0-.11.07-.22.12-.33a2.61,2.61,0,0,1,.54-.77,2.48,2.48,0,0,1,.78-.52,2.67,2.67,0,0,1,1-.19,2.73,2.73,0,0,1,1,.19,2.48,2.48,0,0,1,.78.52,2.78,2.78,0,0,1,.53.77c0,.11.08.22.12.33a3,3,0,0,1,.13.59c0,.17,0,.35,0,.54s0,.36,0,.53a3,3,0,0,1-.13.59c0,.11-.07.22-.12.33a2.78,2.78,0,0,1-.53.77,3.3,3.3,0,0,1-.35.28,3.28,3.28,0,0,1,1.07.71,3.6,3.6,0,0,1,.74,1.07,4.13,4.13,0,0,1,.36,1.29c0,.33.07.67.08,1a.71.71,0,0,1,0,.14A1.13,1.13,0,0,1,53.83,43.05Zm0-17.73H48.65a1.13,1.13,0,0,1-1.13-1.17.57.57,0,0,0,0-.13c0-.36,0-.7.09-1A4.13,4.13,0,0,1,48,21.7a3.82,3.82,0,0,1,.75-1.07,3.24,3.24,0,0,1,1.06-.71,2.37,2.37,0,0,1-.34-.29,2.56,2.56,0,0,1-.54-.76c0-.11-.08-.22-.12-.33a3,3,0,0,1-.13-.59c0-.17,0-.35,0-.54s0-.36,0-.53a3,3,0,0,1,.13-.59,3.21,3.21,0,0,1,.12-.33,2.61,2.61,0,0,1,.54-.77,2.48,2.48,0,0,1,.78-.52,2.67,2.67,0,0,1,1-.19,2.73,2.73,0,0,1,1,.19,2.48,2.48,0,0,1,.78.52,2.78,2.78,0,0,1,.53.77,3.21,3.21,0,0,1,.12.33,3,3,0,0,1,.13.59c0,.17,0,.35,0,.53s0,.37,0,.54a3,3,0,0,1-.13.59c0,.11-.07.22-.12.33a2.73,2.73,0,0,1-.53.76,2.45,2.45,0,0,1-.35.29,3.28,3.28,0,0,1,1.07.71,3.6,3.6,0,0,1,.74,1.07A4.13,4.13,0,0,1,54.86,23c0,.33.07.67.08,1a.66.66,0,0,1,0,.14A1.13,1.13,0,0,1,53.83,25.32Zm9.5,7.61-.35.36-.35.36a3.94,3.94,0,0,0-5.91,0l-.7-.72a4.05,4.05,0,0,0,1.37-2.87A4.05,4.05,0,0,0,56,27.19l.7-.72a3.93,3.93,0,0,0,5.91,0l.35.36h0l.35.36A4.05,4.05,0,0,0,62,30.06,4,4,0,0,0,63.33,32.93Zm7.4,10.12H65.55a1.13,1.13,0,0,1-1.13-1.17.57.57,0,0,0,0-.13c0-.36,0-.7.09-1a4.13,4.13,0,0,1,.36-1.29,4,4,0,0,1,.74-1.07,3.39,3.39,0,0,1,1.07-.71,3.17,3.17,0,0,1-.34-.28,2.61,2.61,0,0,1-.54-.77c0-.11-.08-.22-.12-.33a3,3,0,0,1-.13-.59c0-.17,0-.35,0-.53s0-.37,0-.54a3,3,0,0,1,.13-.59c0-.11.07-.22.12-.33a2.61,2.61,0,0,1,.54-.77,2.48,2.48,0,0,1,.78-.52,2.67,2.67,0,0,1,1-.19,2.77,2.77,0,0,1,1,.19,2.48,2.48,0,0,1,.78.52,2.78,2.78,0,0,1,.53.77c0,.11.08.22.12.33a3,3,0,0,1,.13.59c0,.17,0,.35,0,.54s0,.36,0,.53a3,3,0,0,1-.13.59c0,.11-.07.22-.12.33a2.78,2.78,0,0,1-.53.77,3.3,3.3,0,0,1-.35.28,3.28,3.28,0,0,1,1.07.71,3.6,3.6,0,0,1,.74,1.07,4.13,4.13,0,0,1,.36,1.29c0,.33.07.67.08,1a.71.71,0,0,1,0,.14A1.13,1.13,0,0,1,70.73,43.05Zm0-17.73H65.55a1.13,1.13,0,0,1-1.13-1.17.57.57,0,0,0,0-.13c0-.36,0-.7.09-1a4.13,4.13,0,0,1,.36-1.29,4,4,0,0,1,.74-1.07,3.39,3.39,0,0,1,1.07-.71,2.37,2.37,0,0,1-.34-.29,2.56,2.56,0,0,1-.54-.76c0-.11-.08-.22-.12-.33a3,3,0,0,1-.13-.59c0-.17,0-.35,0-.54s0-.36,0-.53a3,3,0,0,1,.13-.59,3.21,3.21,0,0,1,.12-.33,2.61,2.61,0,0,1,.54-.77,2.48,2.48,0,0,1,.78-.52,2.67,2.67,0,0,1,1-.19,2.77,2.77,0,0,1,1,.19,2.48,2.48,0,0,1,.78.52,2.78,2.78,0,0,1,.53.77,3.21,3.21,0,0,1,.12.33,3,3,0,0,1,.13.59c0,.17,0,.35,0,.53s0,.37,0,.54a3,3,0,0,1-.13.59c0,.11-.07.22-.12.33a2.73,2.73,0,0,1-.53.76,2.45,2.45,0,0,1-.35.29,3.28,3.28,0,0,1,1.07.71,3.6,3.6,0,0,1,.74,1.07A4.13,4.13,0,0,1,71.76,23c0,.33.07.67.08,1a.66.66,0,0,1,0,.14A1.13,1.13,0,0,1,70.73,25.32Z" style="fill:#fff"/></svg>