<svg xmlns="http://www.w3.org/2000/svg" viewBox="0 0 179.64 65.56"><title>dOrg_3</title><path d="M38.46,0V51.54H27.92v-4.9A11.62,11.62,0,0,1,24.44,50a14.18,14.18,0,0,1-8.09,2.32h-.71a13.8,13.8,0,0,1-12-6,18.74,18.74,0,0,1-2.77-6A27.48,27.48,0,0,1,0,33.16V32a26.83,26.83,0,0,1,.92-7,20.27,20.27,0,0,1,2.72-6A13.7,13.7,0,0,1,15.54,13h.65a16.58,16.58,0,0,1,7.93,1.84,14.4,14.4,0,0,1,3.75,2.93V0ZM19.07,22.88c-3,0-5.15,1.09-6.52,3.26a10.69,10.69,0,0,0-1.22,3,13.57,13.57,0,0,0-.41,3.31v.2a13.18,13.18,0,0,0,.41,3.23,10.46,10.46,0,0,0,1.22,3,7.16,7.16,0,0,0,6.52,3.34h.59A7.38,7.38,0,0,0,26.18,39,10.62,10.62,0,0,0,28,32.68v-.2A11,11,0,0,0,26.18,26a7.48,7.48,0,0,0-6.52-3.13Z" style="fill:#6c9"/><path d="M92.32,8.37A20.12,20.12,0,0,0,84.6,2.28,27.29,27.29,0,0,0,73.09.07H70.7Q61.9.07,56,4.08a20.24,20.24,0,0,0-7.5,9.6,30.14,30.14,0,0,0-2.11,11.37V27.1a30.14,30.14,0,0,0,2.11,11.37A20.48,20.48,0,0,0,56,48.2Q62,52.36,70.7,52.36h2.39a26.44,26.44,0,0,0,11.46-2.28,20.69,20.69,0,0,0,7.77-6.3,23.73,23.73,0,0,0,3.83-7.87,32.85,32.85,0,0,0,1.22-8.81V25.05a32.86,32.86,0,0,0-1.22-8.85A23.82,23.82,0,0,0,92.32,8.37Z" style="fill:#fff"/><path d="M125.48,12.94h-.33a9.75,9.75,0,0,0-7,2.79A12.73,12.73,0,0,0,115.32,20v-6.2H104.84V51.54h10.59V31.45a11.77,11.77,0,0,1,1.3-5.95,4.12,4.12,0,0,1,3.75-2.22,3.39,3.39,0,0,1,3.34,2,14.54,14.54,0,0,1,1,6.06v.54h10.92c0-.54.06-1.27.06-2.18V27.57q0-6.94-2.45-10.62A9,9,0,0,0,125.48,12.94Z" style="fill:#fff"/><path d="M169.1,13.75v3.88a12.85,12.85,0,0,0-3.69-2.86A17.14,17.14,0,0,0,157.26,13h-.6a15.16,15.16,0,0,0-7.06,1.54,13.48,13.48,0,0,0-4.89,4.18,17.81,17.81,0,0,0-2.61,5.62,24.68,24.68,0,0,0-.87,6.57v1.16a25.37,25.37,0,0,0,.82,6.43,17.61,17.61,0,0,0,2.55,5.69q4.08,6.06,12.22,6.06h.76a15.81,15.81,0,0,0,8.15-2,8.56,8.56,0,0,0,1.93-1.43,20.09,20.09,0,0,0,1.49-1.7v2.79q0,3.82-1.68,5.65-2,2.33-6.08,2.32h-.6c-2.46,0-4.2-.37-5.22-1.09a2.44,2.44,0,0,1-.86-.78,8,8,0,0,1-.55-1.06H142.92v.27A10.91,10.91,0,0,0,145.69,61q4.34,4.56,14.5,4.56H162q9.45,0,13.85-5.37,3.75-4.5,3.75-12.87V13.75Zm.11,18a10.94,10.94,0,0,1-.44,3.06,8.25,8.25,0,0,1-1.3,2.66A7.81,7.81,0,0,1,161,40.31h-.66a7.58,7.58,0,0,1-6.51-2.93,9.43,9.43,0,0,1-1.69-5.72v-.21a9.64,9.64,0,0,1,1.63-5.78q2.17-2.87,6.57-2.86h.6a7.71,7.71,0,0,1,6.41,2.79,9.28,9.28,0,0,1,1.85,5.85Z" style="fill:#fff"/><path d="M74.79,30.49a3.9,3.9,0,0,0-5.82,0,3.7,3.7,0,0,0,0-5.69,3.9,3.9,0,0,0,5.82,0A3.7,3.7,0,0,0,74.79,30.49Z"/><path d="M74.79,30.49a3.9,3.9,0,0,0-5.82,0,3.7,3.7,0,0,0,0-5.69,3.9,3.9,0,0,0,5.82,0A3.7,3.7,0,0,0,74.79,30.49Z" style="fill:none;stroke:#000;stroke-miterlimit:10"/><path d="M66.73,39.1a1,1,0,0,0,1-1V38c0-.31,0-.62-.07-.9a3.72,3.72,0,0,0-.32-1.14,3.27,3.27,0,0,0-.65-.95,3.21,3.21,0,0,0-1-.64,3.54,3.54,0,0,0-2.51,0,3,3,0,0,0-1,.64,3.51,3.51,0,0,0-.66.95,3.71,3.71,0,0,0-.31,1.14,8.37,8.37,0,0,0-.08.9v.12a1,1,0,0,0,1,1Z"/><path d="M66.5,30.85a2.5,2.5,0,0,0-.47-.68,2.19,2.19,0,0,0-.69-.46,2.28,2.28,0,0,0-.89-.17,2.19,2.19,0,0,0-1.59.63,2.5,2.5,0,0,0-.47.68,2.47,2.47,0,0,0-.1.29h4.32C66.57,31,66.54,30.94,66.5,30.85Z"/><path d="M62.39,33.41a2.2,2.2,0,0,0,1.16,1.14,2.33,2.33,0,0,0,.9.16,2.28,2.28,0,0,0,.89-.16,2.38,2.38,0,0,0,.69-.46,2.5,2.5,0,0,0,.47-.68c0-.09.07-.19.11-.29H62.29A2.47,2.47,0,0,0,62.39,33.41Z"/><path d="M66.76,32.13c0-.16,0-.32,0-.47a3,3,0,0,0-.11-.52H62.29a2.31,2.31,0,0,0-.12.52c0,.15,0,.31,0,.47s0,.32,0,.47a2.31,2.31,0,0,0,.12.52h4.32a3,3,0,0,0,.11-.52C66.74,32.45,66.75,32.29,66.76,32.13Z"/><path d="M81.62,39.1a1,1,0,0,0,1-1V38c0-.31,0-.62-.07-.9a3.72,3.72,0,0,0-.32-1.14,3.31,3.31,0,0,0-.66-.95,3,3,0,0,0-1-.64,3.54,3.54,0,0,0-2.51,0,3,3,0,0,0-1,.64,3.12,3.12,0,0,0-.66.95,3.72,3.72,0,0,0-.32,1.14c0,.28-.06.59-.08.9v.12a1,1,0,0,0,1,1Z"/><path d="M81.4,30.85a2.5,2.5,0,0,0-.47-.68,2.19,2.19,0,0,0-1.59-.63,2.28,2.28,0,0,0-.89.17,2.31,2.31,0,0,0-.69.46,2.5,2.5,0,0,0-.47.68,2.47,2.47,0,0,0-.1.29H81.5A2.47,2.47,0,0,0,81.4,30.85Z"/><path d="M77.29,33.41a2.2,2.2,0,0,0,1.16,1.14,2.28,2.28,0,0,0,.89.16,2.33,2.33,0,0,0,.9-.16,2.2,2.2,0,0,0,1.16-1.14,2.47,2.47,0,0,0,.1-.29H77.19A2.47,2.47,0,0,0,77.29,33.41Z"/><path d="M81.66,32.13c0-.16,0-.32,0-.47a2.31,2.31,0,0,0-.12-.52H77.19a2.31,2.31,0,0,0-.12.52c0,.15,0,.31,0,.47s0,.32,0,.47a2.31,2.31,0,0,0,.12.52H81.5a2.31,2.31,0,0,0,.12-.52C81.64,32.45,81.65,32.29,81.66,32.13Z"/><path d="M66.73,23.47a1,1,0,0,0,1-1v-.13c0-.32,0-.62-.07-.9a3.65,3.65,0,0,0-.32-1.14,3.27,3.27,0,0,0-.65-1,3.21,3.21,0,0,0-1-.64,3.4,3.4,0,0,0-2.51,0,3,3,0,0,0-1,.64,3.51,3.51,0,0,0-.66,1,3.63,3.63,0,0,0-.31,1.14,8.14,8.14,0,0,0-.08.9v.12a1,1,0,0,0,1,1Z"/><path d="M66.5,15.21a2.45,2.45,0,0,0-.47-.67,2.19,2.19,0,0,0-.69-.46,2.28,2.28,0,0,0-.89-.17,2.19,2.19,0,0,0-1.59.63,2.45,2.45,0,0,0-.47.67c0,.1-.07.2-.1.3h4.32Z"/><path d="M62.39,17.78a2.5,2.5,0,0,0,.47.68,2.29,2.29,0,0,0,.69.45,2.16,2.16,0,0,0,.9.17,2.11,2.11,0,0,0,.89-.17,2.17,2.17,0,0,0,.69-.45,2.5,2.5,0,0,0,.47-.68c0-.09.07-.19.11-.29H62.29A2.47,2.47,0,0,0,62.39,17.78Z"/><path d="M66.76,16.5c0-.16,0-.32,0-.47a2.82,2.82,0,0,0-.11-.52H62.29a2.19,2.19,0,0,0-.12.52c0,.15,0,.31,0,.47s0,.32,0,.47a2.31,2.31,0,0,0,.12.52h4.32a3,3,0,0,0,.11-.52C66.74,16.82,66.75,16.66,66.76,16.5Z"/><path d="M81.62,23.47a1,1,0,0,0,1-1v-.13c0-.32,0-.62-.07-.9a3.65,3.65,0,0,0-.32-1.14,3.31,3.31,0,0,0-.66-1,3,3,0,0,0-1-.64,3.4,3.4,0,0,0-2.51,0,3,3,0,0,0-1,.64,3.12,3.12,0,0,0-.66,1,3.65,3.65,0,0,0-.32,1.14c0,.28-.06.58-.08.9v.12a1,1,0,0,0,1,1Z"/><path d="M81.4,15.21a2.45,2.45,0,0,0-.47-.67,2.19,2.19,0,0,0-1.59-.63,2.28,2.28,0,0,0-.89.17,2.31,2.31,0,0,0-.69.46,2.45,2.45,0,0,0-.47.67c0,.1-.07.2-.1.3H81.5C81.47,15.41,81.44,15.31,81.4,15.21Z"/><path d="M77.29,17.78a2.5,2.5,0,0,0,.47.68,2.29,2.29,0,0,0,.69.45,2.11,2.11,0,0,0,.89.17,2.16,2.16,0,0,0,.9-.17,2.29,2.29,0,0,0,.69-.45,2.5,2.5,0,0,0,.47-.68,2.47,2.47,0,0,0,.1-.29H77.19A2.47,2.47,0,0,0,77.29,17.78Z"/><path d="M81.66,16.5c0-.16,0-.32,0-.47a2.19,2.19,0,0,0-.12-.52H77.19a2.19,2.19,0,0,0-.12.52c0,.15,0,.31,0,.47s0,.32,0,.47a2.31,2.31,0,0,0,.12.52H81.5a2.31,2.31,0,0,0,.12-.52C81.64,16.82,81.65,16.66,81.66,16.5Z"/></svg>