<svg xmlns="http://www.w3.org/2000/svg" viewBox="0 0 158.16 70.68"><title>dOrg</title><path d="M14.8,55.27a13.51,13.51,0,0,1-5.59-1.16A14.68,14.68,0,0,1,4.7,51a15.78,15.78,0,0,1-3.12-4.67,17.2,17.2,0,0,1-1.43-5.7C.05,39.08,0,37.28,0,35.23s.05-3.86.15-5.4a17.26,17.26,0,0,1,1.43-5.7A15.78,15.78,0,0,1,4.7,19.46a14.68,14.68,0,0,1,4.51-3.12,13.51,13.51,0,0,1,5.59-1.16,8.92,8.92,0,0,1,2.39.31c.72.21,1.36.43,1.93.66l1.54.65a3.12,3.12,0,0,0,1.31.31,1.74,1.74,0,0,0,1.27-.42,2.13,2.13,0,0,0,.42-1.51V1.54A1.49,1.49,0,0,1,24.13.46,1.44,1.44,0,0,1,25.2,0h3.86a1.48,1.48,0,0,1,1.08.46,1.48,1.48,0,0,1,.46,1.08V53A1.46,1.46,0,0,1,30.14,54a1.49,1.49,0,0,1-1.08.47H26.44A1.56,1.56,0,0,1,25.36,54c-.26-.26-.54-.53-.85-.81a1.53,1.53,0,0,0-1.08-.43,2.87,2.87,0,0,0-1.5.39l-1.5.88a9.64,9.64,0,0,1-2.16.89A12.56,12.56,0,0,1,14.8,55.27Zm.77-6.94A8.55,8.55,0,0,0,21.89,46a8.32,8.32,0,0,0,2.54-5.4c.11-1.59.16-3.39.16-5.39s-.05-3.81-.16-5.4a8.35,8.35,0,0,0-2.54-5.4,8.55,8.55,0,0,0-6.32-2.31,8.55,8.55,0,0,0-6.32,2.31,8.35,8.35,0,0,0-2.54,5.4c-.11,1.59-.16,3.39-.16,5.4s0,3.8.16,5.39A8.32,8.32,0,0,0,9.25,46,8.55,8.55,0,0,0,15.57,48.33Z" style="fill:#5cba9c"/><path d="M111.84,28.29a5.41,5.41,0,0,0-2.16-4.47,8.47,8.47,0,0,0-5.39-1.7,12.29,12.29,0,0,0-3.47.5,9.38,9.38,0,0,0-3,1.47,7.49,7.49,0,0,0-2,2.31,6,6,0,0,0-.77,3V53A1.47,1.47,0,0,1,94.57,54a1.45,1.45,0,0,1-1.08.47H89.64A1.49,1.49,0,0,1,88.56,54,1.46,1.46,0,0,1,88.1,53V17.5A1.57,1.57,0,0,1,89.64,16H93a1.56,1.56,0,0,1,1.08.54c.26.25.54.52.85.8a1.53,1.53,0,0,0,1.08.43,3.09,3.09,0,0,0,1.54-.39c.46-.25,1-.55,1.66-.88a12.13,12.13,0,0,1,2.31-.89,13,13,0,0,1,3.51-.39,14.22,14.22,0,0,1,5.35,1,14.44,14.44,0,0,1,4.4,2.73,12.47,12.47,0,0,1,3,4.17,12.61,12.61,0,0,1,1.08,5.2,1.57,1.57,0,0,1-1.54,1.54h-3.93a1.57,1.57,0,0,1-1.54-1.54Z" style="fill:#fff"/><path d="M156.62,16a1.57,1.57,0,0,1,1.54,1.54V56.81a13.82,13.82,0,0,1-1,5.32,13.33,13.33,0,0,1-2.93,4.43,14.17,14.17,0,0,1-4.47,3,14,14,0,0,1-5.66,1.12,18.92,18.92,0,0,1-4.94-.65,13.44,13.44,0,0,1-4.27-2,12,12,0,0,1-3.16-3.31A11.39,11.39,0,0,1,130,60.12c-.16-1.18.31-1.77,1.39-1.77h3.7c.82,0,1.32.15,1.5.46a7.84,7.84,0,0,1,.5,1.08,5.69,5.69,0,0,0,2.39,2.89,9,9,0,0,0,4.55,1,7.39,7.39,0,0,0,5.05-1.88,6.45,6.45,0,0,0,2.12-5v-1.7a1.94,1.94,0,0,0-.43-1.46,1.6,1.6,0,0,0-1.27-.31,3.16,3.16,0,0,0-1.31.31l-1.54.65c-.57.23-1.21.45-1.93.66a8.92,8.92,0,0,1-2.39.31,13.55,13.55,0,0,1-5.59-1.16A14.68,14.68,0,0,1,132.26,51a15.78,15.78,0,0,1-3.12-4.67,17.19,17.19,0,0,1-1.42-5.7c-.11-1.54-.16-3.34-.16-5.39s0-3.86.16-5.4a17.25,17.25,0,0,1,1.42-5.7,15.78,15.78,0,0,1,3.12-4.67,14.68,14.68,0,0,1,4.51-3.12,13.55,13.55,0,0,1,5.59-1.16,12.51,12.51,0,0,1,3.47.39,9.64,9.64,0,0,1,2.16.89l1.5.88a2.89,2.89,0,0,0,1.5.39,1.51,1.51,0,0,0,1.08-.43c.31-.28.59-.55.85-.8A1.56,1.56,0,0,1,154,16Zm-13.49,6.16a8.55,8.55,0,0,0-6.32,2.31,8.35,8.35,0,0,0-2.54,5.4c-.11,1.59-.16,3.39-.16,5.4s0,3.8.16,5.39a8.32,8.32,0,0,0,2.54,5.4,9.8,9.8,0,0,0,12.64,0,8.38,8.38,0,0,0,2.55-5.4c.1-1.59.15-3.39.15-5.39s-.05-3.81-.15-5.4a8.41,8.41,0,0,0-2.55-5.4A8.55,8.55,0,0,0,143.13,22.12Z" style="fill:#fff"/><path d="M77.43,21.51c-.07-1.83-.22-3.56-.42-5.21A21.17,21.17,0,0,0,75.2,9.75a18.78,18.78,0,0,0-3.78-5.43,16.89,16.89,0,0,0-4.65-3.27,7.65,7.65,0,0,1-2.2,4,7.86,7.86,0,0,1-5.81,2.13,7.86,7.86,0,0,1-5.82-2.13A7.67,7.67,0,0,1,50.72,1a17,17,0,0,0-4.81,3.35,18.78,18.78,0,0,0-3.78,5.43,21.17,21.17,0,0,0-1.81,6.55c-.21,1.65-.36,3.38-.46,5.21s-.16,3.68-.16,5.58,0,3.78.16,5.63.25,3.57.46,5.17a21.17,21.17,0,0,0,1.81,6.55,18.78,18.78,0,0,0,3.78,5.43,16.86,16.86,0,0,0,5,3.45,7.69,7.69,0,0,1,2.21-4A7.87,7.87,0,0,1,59,47.15a7.67,7.67,0,0,1,8,5.92,17,17,0,0,0,4.49-3.2,18.78,18.78,0,0,0,3.78-5.43A21.17,21.17,0,0,0,77,37.89c.2-1.6.35-3.32.42-5.17s.12-3.72.12-5.63S77.51,23.33,77.43,21.51ZM50,27.41a4.26,4.26,0,0,1-1.3,2.76,4.37,4.37,0,0,1-3.23,1.18,4.35,4.35,0,0,1-3.23-1.18,4.26,4.26,0,0,1-1.3-2.76,5.91,5.91,0,0,1,0-1.33,4.26,4.26,0,0,1,1.3-2.76,5,5,0,0,1,6.46,0A4.26,4.26,0,0,1,50,26.08,5.91,5.91,0,0,1,50,27.41Zm4.44-15.32a4.26,4.26,0,0,1,1.3-2.76,5,5,0,0,1,6.46,0,4.26,4.26,0,0,1,1.3,2.76,5.92,5.92,0,0,1,0,1.33,4.26,4.26,0,0,1-1.3,2.76,5,5,0,0,1-6.46,0,4.26,4.26,0,0,1-1.3-2.76A5.92,5.92,0,0,1,54.43,12.09Zm9.06,30.25a4.26,4.26,0,0,1-1.3,2.76,5,5,0,0,1-6.46,0,4.26,4.26,0,0,1-1.3-2.76,5.92,5.92,0,0,1,0-1.33,4.26,4.26,0,0,1,1.3-2.76,5,5,0,0,1,6.46,0A4.26,4.26,0,0,1,63.49,41,5.92,5.92,0,0,1,63.49,42.34ZM58.81,35c0-6.94-.61-7.75-5.81-7.75,5.2,0,5.81-.81,5.81-7.75,0,6.94.61,7.75,5.81,7.75C59.42,27.25,58.81,28.06,58.81,35Zm17.72-7.59a4.26,4.26,0,0,1-1.3,2.76,5,5,0,0,1-6.46,0,4.26,4.26,0,0,1-1.3-2.76,5.91,5.91,0,0,1,0-1.33,4.26,4.26,0,0,1,1.3-2.76,5,5,0,0,1,6.46,0,4.26,4.26,0,0,1,1.3,2.76A5.91,5.91,0,0,1,76.53,27.41Z" style="fill:#fff"/></svg>