<svg xmlns="http://www.w3.org/2000/svg" viewBox="0 0 360.35 160"><title>mark_2</title><rect x="237.15" y="77.23" width="15.65" height="7.82" style="fill:#fff"/><rect x="79.34" width="7.82" height="15.65" style="fill:#fff"/><rect x="15.94" y="102.17" width="15.65" height="7.82" style="fill:#fff"/><rect x="344.7" y="54.2" width="15.65" height="7.82" style="fill:#fff"/><rect y="151.92" width="15.65" height="7.82" style="fill:#fff"/><rect x="172.05" y="15.79" width="15.65" height="7.82" style="fill:#fff"/><rect x="96.83" y="102.52" width="15.65" height="7.82" style="fill:#fff"/><polyline points="79.45 62.47 1.56 62.47 1.56 124.85 188.65 124.85 188.65 62.75 270.05 62.75" style="fill:none;stroke:#fff;stroke-miterlimit:10;stroke-width:2px"/><polyline points="188.65 110.96 188.65 110.96 188.65 15.09 110.72 15.09 110.72 78.82 16.79 78.82 16.79 109.83" style="fill:none;stroke:#fff;stroke-miterlimit:10;stroke-width:2px"/><line x1="188.97" y1="77.97" x2="252.69" y2="77.97" style="fill:none;stroke:#fff;stroke-miterlimit:10;stroke-width:2px"/><polyline points="96.72 78.82 96.72 110.96 174.05 110.96 174.05 77.97 185.63 77.97" style="fill:none;stroke:#fff;stroke-miterlimit:10;stroke-width:2px"/><polyline points="185.94 62.75 160.09 62.75 160.09 32.93 96.72 32.93 96.72 79.24" style="fill:none;stroke:#fff;stroke-miterlimit:10;stroke-width:2px"/><polyline points="269.12 61.96 269.12 109.69 344.78 109.69 344.78 61.25 296.75 61.25 283.81 61.25 283.81 72.9 283.81 123.74 345.7 123.74 345.7 159 0.29 159" style="fill:none;stroke:#fff;stroke-miterlimit:10;stroke-width:2px"/><line x1="78.77" y1="62.47" x2="78.77" style="fill:none;stroke:#fff;stroke-miterlimit:10;stroke-width:2px"/></svg>