<svg xmlns="http://www.w3.org/2000/svg" xmlns:xlink="http://www.w3.org/1999/xlink" viewBox="0 0 353.31 171.31"><defs><clipPath id="a"><rect width="362.26" height="181.13" style="fill:none"/></clipPath><clipPath id="c" transform="translate(-4.56 -4.47)"><path d="M14.75,168.45H353.34v2.81H9.09v-8.7h5.66v5.89ZM262.58,62.26H192.45v67.93H90.57v-2.81h99.08V62.26H167v-2.8h22.65V51H353.34V168.27h-2.8V53.8H192.45v5.66h70.13v-.14h5.67v5.89h-5.67V62.26Zm23.25,59.46H334v-3.08h5.66v5.89H283V53.8h2.81v67.92Zm-116-47.91h-5.66V67.92h8.47v54H90.57v-2.81h79.24V73.81ZM167,59.46V11.81H99V119.09h-2.8V56.6H90.57V53.8h5.66v-42H90.57V9h79.24V59.46Z" style="fill:none;clip-path:url(#a);clip-rule:evenodd"/></clipPath><clipPath id="d" transform="translate(-4.56 -4.47)"><path d="M22.64,65.07v48.14h5.68v5.88H90.57v2.81H28.32v5.48H90.57v2.81H11.32V53.75h2.81v0H73.81v-42h2.81v42H90.57v2.8H76.62v8.47ZM73.81,11.81H90.57V9H73.81v2.81ZM14.13,56.6v56.61h5.7V62.26h54V56.6Z" style="fill:none;clip-path:url(#a);clip-rule:evenodd"/></clipPath></defs><title>mark_1</title><g style="clip-path:url(#c)"><rect width="353.31" height="171.31" style="fill:#fff"/></g><g style="clip-path:url(#d)"><rect x="2.23" width="88.3" height="130.24" style="fill:#fff"/></g></svg>