<svg xmlns="http://www.w3.org/2000/svg" viewBox="0 0 361.29 174.99"><title>mark</title><polygon points="192.09 127.35 0 127.35 0 59.97 82.22 59.97 82.22 64.97 5 64.97 5 122.35 187.09 122.35 187.09 60.25 271.43 60.25 271.43 65.25 192.09 65.25 192.09 127.35" style="fill:#fff"/><path d="M82.21,112.33h-67v-36h93.94V12.59h82.93V111h-5V17.59H114.16V81.32H82.21Zm-62-5h57v-26h-57Z" style="fill:#fff"/><rect x="189.91" y="75.47" width="51.7" height="5" style="fill:#fff"/><polygon points="177.49 113.46 95.15 113.46 95.15 78.82 100.15 78.82 100.15 108.46 172.49 108.46 172.49 75.47 183.56 75.47 183.56 80.47 177.49 80.47 177.49 113.46" style="fill:#fff"/><polygon points="100.15 79.24 95.15 79.24 95.15 30.43 163.53 30.43 163.53 60.25 183.88 60.25 183.88 65.25 158.53 65.25 158.53 35.43 100.15 35.43 100.15 79.24" style="fill:#fff"/><path d="M349.14,175H237.25V124.05h15.59v5H242.25V170H344.14V126.24H282.25v-14h-14.7V60.26h5v46.93h9.7V58.75h66v53.44h-61v9h61.89Zm-61.89-67.8h56V63.75h-56Z" style="fill:#fff"/><rect x="77.21" width="5" height="62.47" style="fill:#fff"/><rect x="238.09" y="75.45" width="15.65" height="15.65" style="fill:#4ea68a"/><rect x="81.58" width="15.65" height="15.65" style="fill:#4ea68a"/><rect x="16.88" y="94.26" width="15.65" height="15.65" style="fill:#4ea68a"/><rect x="345.64" y="46.29" width="15.65" height="15.65" style="fill:#4ea68a"/><rect x="237.19" y="121.39" width="15.65" height="15.65" style="fill:#4ea68a"/><rect x="172.98" y="15.91" width="15.65" height="15.65" style="fill:#4ea68a"/><rect x="97.77" y="94.6" width="15.65" height="15.65" style="fill:#4ea68a"/></svg>