<svg xmlns="http://www.w3.org/2000/svg" viewBox="0 0 377.59 182.37"><title>mark_o</title><path d="M12.53,61.91v53.15h6.28v6.5H87.53v3.1H18.81v6.05H87.53v3.1H0V49.41h3.1v.05H69V3.1h3.1V49.46h15.4v3.1H72.13v9.35H12.53ZM69,0h18.5V3.1H69V0Zm0,52.56H3.13v62.5h6.3V58.81H69V52.56Z" style="fill:#149377;fill-rule:evenodd"/><path d="M3.63,176.06h374v3.1H3.65ZM375.56,46.36h2v129.5h-3.1V49.46H199.94v6.25H273.1V52.56h9.3v9.3h-9.3v-3H199.94v75H87.44v-3.11h109.4V58.82h-25V55.71h25V46.36Zm-75.62,3.1H303v75h50.19v-2.9h9.3v9.3h-9.3v-3.29H299.94V49.46ZM175,74.36H172v-9.3h9.3v9.3h-3.15v50.31H87.44v-3.1H175V74.36Zm-.09-18.65h-3.1V3.1h-75V121.57h-3.1v-69H87.44V49.46h6.25V3.1H87.44V0h87.5V55.71Z" style="fill:#fff;fill-rule:evenodd"/><rect y="173.1" width="9.27" height="9.27" style="fill:#fff"/></svg>