<svg xmlns="http://www.w3.org/2000/svg" viewBox="0 0 69.08 33.47"><title>mark2</title><rect x="45.46" y="14.42" width="2.99" height="2.99" style="fill:#fff"/><rect x="15.58" width="2.99" height="2.99" style="fill:#fff"/><rect x="3.22" y="18.05" width="2.99" height="2.99" style="fill:#fff"/><rect x="66.09" y="8.8" width="2.99" height="2.99" style="fill:#fff"/><rect x="66.09" y="23.13" width="2.99" height="2.99" style="fill:#fff"/><rect x="33.56" y="29.98" width="2.99" height="2.99" style="fill:#fff"/><rect x="33.03" y="3.09" width="2.99" height="2.99" style="fill:#fff"/><rect x="24.14" y="6.19" width="2.99" height="2.99" style="fill:#fff"/><path d="M36.68,24.37H0V11.5H15.7v3.12h5.14V2.46H36.68v9.1H51.83v.95H36.68ZM1,23.41H35.73v-20H21.8V15.58H15.7V21.5H2.91V14.62H14.74V12.46H1Zm2.91-2.86H14.74v-5H3.86Z" style="fill:#fff"/><rect x="36.26" y="14.46" width="9.87" height="0.95" style="fill:#fff"/><polygon points="33.89 21.72 17.82 21.72 17.82 0.05 18.77 0.05 18.77 20.76 32.94 20.76 32.94 14.46 35.05 14.46 35.05 15.42 33.89 15.42 33.89 21.72" style="fill:#fff"/><polygon points="35.11 12.51 30.27 12.51 30.27 6.82 24.03 6.82 24.03 5.86 31.23 5.86 31.23 11.55 35.11 11.55 35.11 12.51" style="fill:#fff"/><path d="M66.67,33.47H33.53v-1H65.71V24.16H53.9V21.47H51.09V12.1h1v8.42H53.9V11.27H66.49v10.2H54.85V23.2H66.67ZM54.85,20.52H65.54v-8.3H54.85Z" style="fill:#fff"/></svg>