<?xml version="1.0" encoding="utf-8"?>
<!-- Generator: Adobe Illustrator 23.0.4, SVG Export Plug-In . SVG Version: 6.00 Build 0)  -->
<svg version="1.1"
	 id="svg4807" xmlns:cc="http://creativecommons.org/ns#" xmlns:dc="http://purl.org/dc/elements/1.1/" xmlns:rdf="http://www.w3.org/1999/02/22-rdf-syntax-ns#" xmlns:svg="http://www.w3.org/2000/svg"
	 xmlns="http://www.w3.org/2000/svg" xmlns:xlink="http://www.w3.org/1999/xlink" x="0px" y="0px" viewBox="0 0 100 76.4"
	 style="enable-background:new 0 0 100 76.4;" xml:space="preserve">
<style type="text/css">
	.st0{fill:#FFFFFF;}
</style>
<path id="path4823" class="st0" d="M34.5,75.4c-0.8,0-1.9-0.2-2.4-0.4c-0.5-0.2-1.5-1.1-2.1-1.8c-0.5-0.7-1.2-1.9-1.4-2.6
	c-0.2-0.8-0.4-2.1-0.4-2.9c0-0.9,0.2-2.3,0.5-3.1c0.3-0.9,1-2,1.5-2.5s1.4-1.2,2.1-1.5c0.7-0.2,1.8-0.4,2.4-0.4c0.7,0,2,0.3,2.9,0.8
	c1,0.4,1.8,1.2,2.4,2.2c0.4,0.8,1,2.1,1.1,3c0.1,0.8,0.1,2.3,0,3.4s-0.7,2.5-1.2,3.3c-0.5,0.9-1.5,1.8-2.4,2.1
	C36.6,75.1,35.3,75.4,34.5,75.4L34.5,75.4z M35.1,73.6c0.9-0.1,1.9-0.4,2.2-0.8c0.4-0.3,1-1.2,1.2-1.8c0.2-0.7,0.4-2.1,0.4-3.3
	c0-1.2-0.2-2.6-0.5-3.3c-0.3-0.7-1-1.5-1.6-1.9c-0.7-0.4-1.6-0.7-2.2-0.7s-1.5,0.3-2.1,0.7c-0.5,0.3-1.3,1.2-1.6,1.9
	c-0.3,0.7-0.5,2.1-0.5,3.2s0.2,2.6,0.5,3.4c0.3,0.9,1,1.8,1.6,2.1C33.2,73.6,34,73.7,35.1,73.6z M47.4,75.4c-0.7,0-1.5-0.1-2-0.2
	s-0.9-0.3-1.1-0.5c-0.2-0.2-0.4-0.7-0.4-1.1c0-0.5,0.1-0.7,0.8-0.4c0.4,0.1,1.4,0.3,2.2,0.4s1.8,0,2.2-0.2s0.8-0.7,0.7-1.1
	c-0.1-0.5-0.7-0.9-2.2-1.4c-1.1-0.4-2.4-1.1-2.9-1.5c-0.5-0.5-0.9-1.2-0.9-2s0.3-1.4,0.9-2c0.7-0.7,1.4-0.9,2.9-1
	c1.1-0.1,2.4,0,3,0.2c0.7,0.3,1,0.7,1,1.3c0,0.8-0.1,0.9-0.8,0.7c-0.4-0.1-1.3-0.3-1.9-0.4c-0.7-0.1-1.5-0.1-2,0
	c-0.4,0.1-1,0.4-1.1,0.8c-0.1,0.3,0,0.8,0.2,1.1c0.2,0.2,1.2,0.8,2.3,1.1c1.2,0.3,2.2,1,2.7,1.6c0.4,0.5,0.9,1.2,0.9,1.5
	s-0.2,1-0.5,1.5s-1,1.2-1.6,1.4C49.1,75.3,48,75.4,47.4,75.4L47.4,75.4z M59.4,75.4c-0.5,0-1.4-0.2-1.8-0.3
	c-0.4-0.2-0.9-0.8-1.1-1.2c-0.2-0.4-0.4-2.4-0.4-4.3v-3.5h-0.9c-0.8,0-0.9-0.1-0.8-0.8c0.1-0.5,0.4-0.9,0.9-0.9
	c0.5-0.1,0.8-0.4,0.9-1c0.1-0.5,0.4-1,0.9-1.2c0.8-0.2,0.8-0.2,0.8,0.9v1.2l2,0.1c1.8,0.1,2,0.2,2.1,0.9c0.1,0.7-0.1,0.8-2,0.9
	l-2,0.1l-0.1,2.4c-0.1,1.3,0,3,0.1,3.6c0.1,0.8,0.4,1.2,1.1,1.3c0.4,0.1,1.3,0,1.9-0.1c1-0.3,1.1-0.3,1.1,0.7c0,0.8-0.2,1.1-0.8,1.2
	C60.7,75.3,60,75.4,59.4,75.4L59.4,75.4z M68.2,75.4c-0.7,0-1.5-0.2-2.1-0.5c-0.5-0.3-1.1-0.8-1.3-1.2c-0.2-0.3-0.3-1.2-0.3-1.9
	c0-0.8,0.2-1.4,0.8-1.9c0.4-0.4,1.2-0.9,1.8-1.1c0.5-0.2,1.8-0.3,2.7-0.3c1.6,0,1.8-0.1,1.8-0.9c0-0.4-0.3-1-0.7-1.2
	c-0.3-0.2-1.3-0.3-2-0.3c-0.8,0-1.9,0.1-2.4,0.3c-1.1,0.3-1.1,0.3-1.1-0.7c0-0.8,0.2-1,1.1-1.2c0.5-0.1,1.9-0.2,2.9-0.2
	s2.2,0.2,2.7,0.5s1.2,1,1.4,1.6c0.2,0.7,0.4,2.5,0.4,4.2c0,3.1,0,3.1,0.9,3.1c0.4,0,0.9,0.2,0.9,0.4c0,0.2-0.2,0.7-0.4,0.9
	c-0.7,0.2-1.1,0.3-1.5,0.3s-1-0.2-1.3-0.5c-0.4-0.4-0.7-0.4-1.8,0C69.9,75.2,68.8,75.4,68.2,75.4L68.2,75.4z M68.4,73.7
	c0.7,0,1.6-0.2,2.1-0.4c0.8-0.3,0.9-0.7,0.9-2c0-1.1-0.1-1.5-0.4-1.5c-0.2,0-1.2,0.1-2.1,0.2c-1.2,0.1-1.8,0.4-2.2,1.1
	c-0.4,0.8-0.4,0.9,0,1.6C67.1,73.5,67.5,73.7,68.4,73.7z M82.8,75.3c-1,0.1-2.2-0.1-2.9-0.3c-0.5-0.2-1.4-1-2-1.5s-1-1.6-1.1-2.4
	s-0.1-2,0.1-2.7s0.7-1.8,1.1-2.1c0.4-0.4,1.2-1,1.8-1.3c0.8-0.4,1.6-0.5,3-0.4c1,0.1,2.2,0.4,2.7,0.8c0.7,0.4,0.9,0.9,0.9,1.6v1
	l-1.1-0.8c-0.7-0.4-1.9-0.9-2.7-1c-1.5-0.1-1.8-0.1-2.7,0.9c-0.9,0.9-1.1,1.3-1.1,2.5c0,0.8,0.2,1.9,0.5,2.5c0.3,0.7,1,1.2,1.4,1.4
	c0.4,0.2,1.2,0.3,1.6,0.3s1.5-0.4,2.4-0.9l1.6-0.9v1c0,0.7-0.3,1.2-1,1.6C85,75,83.8,75.3,82.8,75.3L82.8,75.3z M3.8,75.1H1v-7.3
	v-7.3l3.6,0.1c3.3,0.1,3.7,0.2,4.9,1.1c0.7,0.5,1.5,1.5,2,2.3c0.4,1,0.7,2.1,0.7,3.6c0,1.3-0.2,2.9-0.5,3.6c-0.3,0.8-1,1.8-1.4,2.3
	C9.6,74,8.8,74.6,8,74.8C7.2,75,5.4,75.1,3.8,75.1L3.8,75.1z M4.8,73.4c1.2,0,2.5-0.2,3.2-0.5c0.5-0.3,1.3-1,1.6-1.6
	c0.3-0.7,0.5-2,0.7-3.4c0-1.5-0.2-2.6-0.5-3.4C9.4,63.8,8.6,63,8,62.7s-2.1-0.5-3.2-0.5H2.6v5.6v5.6H4.8z M15.1,75
	c-0.5,0.1-1,0-1-0.1s1.1-3.3,2.5-7.1c1.4-3.7,2.6-7,2.7-7.2c0.2-0.2,0.7-0.3,1.1-0.2c0.7,0.1,1.1,1.1,3.3,7.2
	c1.4,3.8,2.5,7.1,2.5,7.3c0,0.1-0.3,0.2-0.9,0.2c-0.7,0-1-0.3-1.6-2.1L23,70.9h-2.6h-2.9l-0.8,2C16.2,74.7,15.9,75,15.1,75z
	 M20.3,69.2h2.2L21.4,66l-1.1-3.2l-1.2,3.1c-0.7,1.8-1.2,3.2-1.2,3.2C18,69.2,19.1,69.2,20.3,69.2z M90.6,75.1h-1.1v-7.9v-7.9l1,0.1
	l1,0.1v4.9c0,4.4,0.1,4.9,0.5,4.5c0.3-0.2,1.6-1.4,3-2.6c1.8-1.5,2.7-2.2,3.4-2.2c0.5,0,1,0.1,1,0.2s-1,1.1-2.2,2.2l-2.2,2l2.2,3.1
	c1.9,2.7,2.1,3.1,1.4,3.2c-0.4,0.1-0.9,0-1.2-0.1c-0.2-0.1-1.2-1.3-2.1-2.6L93.6,70l-1,0.8c-0.9,0.5-1,0.9-1,2.5
	C91.7,75.1,91.7,75.1,90.6,75.1z M51.5,57.3c-0.1,0-4.6-4.4-10-9.9l-9.9-9.9l2-2l2-2l-2-2l-2-2l1.2-1.3c0.7-0.7,1.5-1.6,2-2.1
	l0.7-0.8l-2-2l-2-2l10-10l10-10l10,10l10,10l-2,2l-2,2l2,2l2,2l-2.1,2.1l-2,2l2,2l2,2l-9.9,9.9C56.1,52.8,51.6,57.3,51.5,57.3z
	 M51.5,53.5c0.1,0,3.7-3.6,8.1-8l7.9-8l-1-1l-1-1l-7,7l-7,7l-7-6.9l-6.9-7.1l-1.1,1l-1.1,1l7.9,8C47.8,49.9,51.4,53.5,51.5,53.5z
	 M51.5,45.5c0.1,0,2.7-2.6,5.9-5.8s5.8-5.8,5.9-5.9c0.1-0.1-0.2-0.5-0.7-1c-0.4-0.4-1-0.9-1.2-0.9S59,34,56.6,36.6
	c-2.4,2.6-4.7,4.7-5,4.7s-2.6-2.1-5-4.7c-2.5-2.6-4.7-4.7-4.9-4.7s-0.8,0.4-1.2,0.9l-0.9,0.9l5.9,5.9C48.7,42.8,51.4,45.5,51.5,45.5
	z M51.5,37.4c0.1,0,2-1.8,4.1-3.9l3.9-3.9l-4.1-3.9l-4.1-3.9l-4.1,3.9l-4.1,3.9l3.9,3.9C49.5,35.6,51.4,37.4,51.5,37.4z M37.6,31.5
	c0.1,0,0.7-0.4,1.2-1l1-1l-1-1l-1-1l-1,1.1l-1,1.1l0.8,0.9C36.9,31.1,37.5,31.5,37.6,31.5z M65.4,31.5c0.1,0,0.5-0.4,1.1-0.9
	l0.8-0.9l-1-1.1l-1-1.1l-0.8,0.8c-0.4,0.4-0.8,0.9-0.8,1.1s0.3,0.8,0.8,1.2C64.9,31.1,65.3,31.5,65.4,31.5z M46.5,22.7l4.9-4.9
	l4.9,4.9l4.9,4.9l1-1l1-1l-5.9-6.1l-5.9-6.1l-5.8,6.3l-5.9,6.1l0.9,1l0.9,1L46.5,22.7z M37.5,23.5c0.1,0,3.3-3.1,7.1-6.9l6.9-6.9
	l7,6.9l7,6.9l0.9-0.9c0.4-0.4,0.9-1,0.9-1.2s-3.5-3.9-7.9-8.2l-7.8-7.9l-6,6.1c-3.3,3.4-6.9,7-7.9,8.1l-2,2.2l0.9,0.9
	C36.9,23,37.4,23.5,37.5,23.5z"/>
</svg>
