<?xml version="1.0" encoding="utf-8"?>
<!-- Generator: Adobe Illustrator 23.0.4, SVG Export Plug-In . SVG Version: 6.00 Build 0)  -->
<svg version="1.1"
	 id="svg4807" xmlns:cc="http://creativecommons.org/ns#" xmlns:dc="http://purl.org/dc/elements/1.1/" xmlns:rdf="http://www.w3.org/1999/02/22-rdf-syntax-ns#" xmlns:svg="http://www.w3.org/2000/svg"
	 xmlns="http://www.w3.org/2000/svg" xmlns:xlink="http://www.w3.org/1999/xlink" x="0px" y="0px" viewBox="0 0 100 100"
	 style="enable-background:new 0 0 100 100;" xml:space="preserve">
<style type="text/css">
	.st0{fill:#FFFFFF;}
</style>
<path id="path4823" class="st0" d="M50,81.3c-0.1,0-5.2-5-11.3-11.1L27.6,59.1l2.3-2.3l2.3-2.3L30,52.4l-2.2-2.2l1.4-1.4
	c0.8-0.8,1.8-1.8,2.2-2.3l0.8-0.9l-2.2-2.2l-2.2-2.2l11.2-11.2L50,18.7l11.2,11.2l11.2,11.2l-2.2,2.3l-2.2,2.3l2.2,2.3l2.2,2.3
	l-2.2,2.2l-2.2,2.2l2.2,2.3l2.2,2.3L61.3,70.2C55.2,76.3,50.1,81.3,50,81.3z M50,77c0.1,0,4.2-4,9.1-8.9l8.9-8.9L67,58L65.8,57
	l-7.9,7.9L50,72.8l-7.8-8l-7.8-8l-1.2,1.1l-1.2,1.1l8.9,8.9C45.8,72.9,49.9,77,50,77z M50,67.9c0.1,0,3.1-2.9,6.7-6.5
	c3.5-3.6,6.5-6.6,6.6-6.7c0.1-0.1-0.2-0.6-0.8-1.2c-0.5-0.5-1.1-1-1.3-1c-0.2,0-2.7,2.4-5.5,5.3c-2.8,2.9-5.3,5.3-5.6,5.3
	c-0.3,0-2.9-2.4-5.7-5.3c-2.8-2.9-5.3-5.3-5.6-5.3c-0.3,0-0.9,0.4-1.4,1l-0.9,1l6.6,6.7C46.8,64.9,49.9,67.9,50,67.9z M50,58.9
	c0.1,0,2.2-2,4.6-4.4l4.4-4.4l-4.5-4.5L50,41.1l-4.5,4.5L41,50.1l4.4,4.4C47.8,56.9,49.9,58.9,50,58.9z M34.3,52.3
	c0.1,0,0.7-0.5,1.3-1.1l1.1-1.1L35.6,49l-1.1-1.1l-1.1,1.2l-1.1,1.2l0.9,1C33.6,51.8,34.2,52.3,34.3,52.3z M65.7,52.3
	c0.1,0,0.7-0.4,1.2-1l0.9-1l-1.1-1.2l-1.1-1.2l-0.9,0.9c-0.5,0.5-0.9,1-0.9,1.2c0,0.2,0.4,0.8,0.9,1.3
	C65.1,51.8,65.6,52.3,65.7,52.3z M44.4,42.4l5.6-5.6l5.6,5.6l5.6,5.6l1.1-1.1l1.1-1.1l-6.6-6.9L50,32.1l-6.6,6.9l-6.6,6.9l1,1.1
	l1,1.1L44.4,42.4z M34.3,43.2c0.1,0,3.7-3.5,8-7.7l7.8-7.7l7.8,7.8l7.8,7.8l1-0.9c0.5-0.5,1-1.1,1-1.4c0-0.2-4-4.4-8.8-9.2L50,23
	l-6.8,6.9c-3.7,3.8-7.7,7.9-8.9,9.1l-2.1,2.2l0.9,1C33.6,42.8,34.2,43.2,34.3,43.2z"/>
</svg>
