<?xml version="1.0" encoding="utf-8"?>
<!-- Generator: Adobe Illustrator 23.0.4, SVG Export Plug-In . SVG Version: 6.00 Build 0)  -->
<svg version="1.1"
	 id="svg4807" xmlns:cc="http://creativecommons.org/ns#" xmlns:dc="http://purl.org/dc/elements/1.1/" xmlns:rdf="http://www.w3.org/1999/02/22-rdf-syntax-ns#" xmlns:svg="http://www.w3.org/2000/svg"
	 xmlns="http://www.w3.org/2000/svg" xmlns:xlink="http://www.w3.org/1999/xlink" x="0px" y="0px" viewBox="0 0 100 100"
	 style="enable-background:new 0 0 100 100;" xml:space="preserve">
<style type="text/css">
	.st0{fill:#FFFFFF;}
</style>
<path id="path4823" class="st0" d="M35.9,83c-0.7,0-1.7-0.2-2.2-0.4c-0.5-0.2-1.4-1-1.9-1.6c-0.5-0.6-1.1-1.7-1.3-2.4
	c-0.2-0.7-0.4-1.9-0.4-2.6c0-0.8,0.2-2.1,0.5-2.8c0.3-0.8,0.9-1.8,1.4-2.3c0.5-0.5,1.3-1.1,1.9-1.4c0.6-0.2,1.6-0.4,2.2-0.4
	s1.8,0.3,2.6,0.7c0.9,0.4,1.6,1.1,2.2,2c0.4,0.7,0.9,1.9,1,2.7c0.1,0.7,0.1,2.1,0,3.1c-0.1,1-0.6,2.3-1.1,3
	c-0.5,0.8-1.4,1.6-2.2,1.9C37.8,82.7,36.6,83,35.9,83L35.9,83z M36.4,81.3c0.8-0.1,1.7-0.4,2-0.7c0.4-0.3,0.9-1.1,1.1-1.6
	c0.2-0.6,0.4-1.9,0.4-3c0-1.1-0.2-2.4-0.5-3c-0.3-0.6-0.9-1.4-1.5-1.7c-0.6-0.4-1.5-0.6-2-0.6c-0.5,0-1.4,0.3-1.9,0.6
	c-0.5,0.3-1.2,1.1-1.5,1.7c-0.3,0.6-0.5,1.9-0.5,2.9c0,1,0.2,2.4,0.5,3.1c0.3,0.8,0.9,1.6,1.5,1.9C34.7,81.3,35.4,81.4,36.4,81.3z
	 M47.6,83c-0.6,0-1.4-0.1-1.8-0.2s-0.8-0.3-1-0.5c-0.2-0.2-0.4-0.6-0.4-1c0-0.5,0.1-0.6,0.7-0.4c0.4,0.1,1.3,0.3,2,0.4
	c0.7,0.1,1.6,0,2-0.2c0.4-0.2,0.7-0.6,0.6-1c-0.1-0.5-0.6-0.8-2-1.3c-1-0.4-2.2-1-2.6-1.4c-0.5-0.5-0.8-1.1-0.8-1.8
	c0-0.7,0.3-1.3,0.8-1.8c0.6-0.6,1.3-0.8,2.6-0.9c1-0.1,2.2,0,2.7,0.2c0.6,0.3,0.9,0.6,0.9,1.2c0,0.7-0.1,0.8-0.7,0.6
	c-0.4-0.1-1.2-0.3-1.7-0.4c-0.6-0.1-1.4-0.1-1.8,0c-0.4,0.1-0.9,0.4-1,0.7c-0.1,0.3,0,0.7,0.2,1c0.2,0.2,1.1,0.7,2.1,1
	c1.1,0.3,2,0.9,2.5,1.5c0.4,0.5,0.8,1.1,0.8,1.4c0,0.3-0.2,0.9-0.5,1.4c-0.3,0.5-0.9,1.1-1.5,1.3C49.2,82.9,48.2,83,47.6,83L47.6,83
	z M58.6,83c-0.5,0-1.3-0.2-1.6-0.3c-0.4-0.2-0.8-0.7-1-1.1c-0.2-0.4-0.4-2.2-0.4-3.9v-3.2h-0.8c-0.7,0-0.8-0.1-0.7-0.7
	c0.1-0.5,0.4-0.8,0.8-0.8c0.5-0.1,0.7-0.4,0.8-0.9c0.1-0.5,0.4-0.9,0.8-1.1c0.7-0.2,0.7-0.2,0.7,0.8v1.1l1.8,0.1
	c1.6,0.1,1.8,0.2,1.9,0.8c0.1,0.6-0.1,0.7-1.8,0.8l-1.8,0.1l-0.1,2.2c-0.1,1.2,0,2.7,0.1,3.3c0.1,0.7,0.4,1.1,1,1.2
	c0.4,0.1,1.2,0,1.7-0.1c0.9-0.3,1-0.3,1,0.6c0,0.7-0.2,1-0.7,1.1C59.8,82.9,59.1,83,58.6,83L58.6,83z M66.6,83
	c-0.6,0-1.4-0.2-1.9-0.5c-0.5-0.3-1-0.7-1.2-1.1c-0.2-0.3-0.3-1.1-0.3-1.7c0-0.7,0.2-1.3,0.7-1.7c0.4-0.4,1.1-0.8,1.6-1
	c0.5-0.2,1.6-0.3,2.5-0.3c1.5,0,1.6-0.1,1.6-0.8c0-0.4-0.3-0.9-0.6-1.1c-0.3-0.2-1.2-0.3-1.8-0.3c-0.7,0-1.7,0.1-2.2,0.3
	c-1,0.3-1,0.3-1-0.6c0-0.7,0.2-0.9,1-1.1c0.5-0.1,1.7-0.2,2.6-0.2c0.9,0,2,0.2,2.5,0.5c0.5,0.3,1.1,0.9,1.3,1.5
	c0.2,0.6,0.4,2.3,0.4,3.8c0,2.8,0,2.8,0.8,2.8c0.4,0,0.8,0.2,0.8,0.4c0,0.2-0.2,0.6-0.4,0.8C72.4,82.9,72,83,71.6,83
	s-0.9-0.2-1.2-0.5c-0.4-0.4-0.6-0.4-1.6,0C68.2,82.8,67.2,83,66.6,83L66.6,83z M66.8,81.4c0.6,0,1.5-0.2,1.9-0.4
	c0.7-0.3,0.8-0.6,0.8-1.8c0-1-0.1-1.4-0.4-1.4c-0.2,0-1.1,0.1-1.9,0.2c-1.1,0.1-1.6,0.4-2,1c-0.4,0.7-0.4,0.8,0,1.5
	C65.6,81.2,66,81.4,66.8,81.4z M79.9,82.9c-0.9,0.1-2-0.1-2.6-0.3c-0.5-0.2-1.3-0.9-1.8-1.4c-0.5-0.5-0.9-1.5-1-2.2
	c-0.1-0.7-0.1-1.8,0.1-2.5c0.2-0.7,0.6-1.6,1-1.9c0.4-0.4,1.1-0.9,1.6-1.2c0.7-0.4,1.5-0.5,2.7-0.4c0.9,0.1,2,0.4,2.5,0.7
	c0.6,0.4,0.8,0.8,0.8,1.5v1l-1-0.7c-0.6-0.4-1.7-0.8-2.5-0.9c-1.4-0.1-1.6-0.1-2.5,0.8c-0.8,0.8-1,1.2-1,2.3c0,0.7,0.2,1.7,0.5,2.3
	s0.9,1.1,1.3,1.3s1.1,0.3,1.5,0.3s1.4-0.4,2.2-0.8l1.5-0.8v0.9c0,0.6-0.3,1.1-0.9,1.5C81.9,82.6,80.8,82.9,79.9,82.9L79.9,82.9z
	 M7.9,82.7l-2.6,0V76v-6.7l3.3,0.1c3,0.1,3.4,0.2,4.5,1c0.6,0.5,1.4,1.4,1.8,2.1c0.4,0.9,0.6,1.9,0.6,3.3c0,1.2-0.2,2.6-0.5,3.3
	c-0.3,0.7-0.9,1.6-1.3,2.1c-0.5,0.5-1.3,1-2,1.2S9.3,82.7,7.9,82.7L7.9,82.7z M8.8,81.1c1.1,0,2.3-0.2,2.9-0.5
	c0.5-0.3,1.2-0.9,1.5-1.5c0.3-0.6,0.5-1.8,0.6-3.1c0-1.4-0.2-2.4-0.5-3.1c-0.3-0.5-1-1.2-1.6-1.5c-0.6-0.3-1.9-0.5-2.9-0.5H6.8V76
	v5.1H8.8z M18.2,82.6c-0.5,0.1-0.9,0-0.9-0.1c0-0.1,1-3,2.3-6.5c1.3-3.4,2.4-6.4,2.5-6.6c0.2-0.2,0.6-0.3,1-0.2c0.6,0.1,1,1,3,6.6
	c1.3,3.5,2.3,6.5,2.3,6.7c0,0.1-0.3,0.2-0.8,0.2c-0.6,0-0.9-0.3-1.5-1.9l-0.7-1.9H23h-2.6l-0.7,1.8C19.2,82.3,18.9,82.6,18.2,82.6z
	 M22.9,77.3h2l-1-2.9l-1-2.9l-1.1,2.8c-0.6,1.6-1.1,2.9-1.1,2.9C20.8,77.3,21.8,77.3,22.9,77.3z M87,82.7h-1v-7.2v-7.2l0.9,0.1
	l0.9,0.1v4.5c0,4,0.1,4.5,0.5,4.1c0.3-0.2,1.5-1.3,2.7-2.4c1.6-1.4,2.5-2,3.1-2c0.5,0,0.9,0.1,0.9,0.2c0,0.1-0.9,1-2,2l-2,1.8l2,2.8
	c1.7,2.5,1.9,2.8,1.3,2.9c-0.4,0.1-0.8,0-1.1-0.1c-0.2-0.1-1.1-1.2-1.9-2.4L89.8,78l-0.9,0.7C88.1,79.2,88,79.5,88,81
	C88,82.7,88,82.7,87,82.7z M51.4,66.5c-0.1,0-4.2-4-9.1-9l-9-9l1.8-1.8l1.8-1.8l-1.8-1.8l-1.8-1.8l1.1-1.2c0.6-0.6,1.4-1.5,1.8-1.9
	l0.6-0.7l-1.8-1.8l-1.8-1.8l9.1-9.1l9.1-9.1l9.1,9.1l9.1,9.1l-1.8,1.8l-1.8,1.8l1.8,1.8l1.8,1.8L67.7,43l-1.8,1.8l1.8,1.8l1.8,1.8
	l-9,9C55.6,62.4,51.5,66.5,51.4,66.5z M51.4,63c0.1,0,3.4-3.3,7.4-7.3l7.2-7.3l-0.9-0.9l-0.9-0.9l-6.4,6.4l-6.4,6.4L45,53.1
	l-6.3-6.5l-1,0.9l-1,0.9l7.2,7.3C48,59.7,51.3,63,51.4,63z M51.4,55.7c0.1,0,2.5-2.4,5.4-5.3c2.9-2.9,5.3-5.3,5.4-5.4
	c0.1-0.1-0.2-0.5-0.6-0.9c-0.4-0.4-0.9-0.8-1.1-0.8c-0.2,0-2.2,1.9-4.4,4.3c-2.2,2.4-4.3,4.3-4.6,4.3c-0.3,0-2.4-1.9-4.6-4.3
	c-2.3-2.4-4.3-4.3-4.5-4.3c-0.2,0-0.7,0.4-1.1,0.8l-0.8,0.8l5.4,5.4C48.8,53.2,51.3,55.7,51.4,55.7z M51.4,48.3
	c0.1,0,1.8-1.6,3.7-3.6l3.6-3.6l-3.7-3.6l-3.7-3.6l-3.7,3.6l-3.7,3.6l3.6,3.6C49.6,46.7,51.3,48.3,51.4,48.3z M38.7,42.9
	c0.1,0,0.6-0.4,1.1-0.9l0.9-0.9l-0.9-0.9l-0.9-0.9l-0.9,1l-0.9,1l0.7,0.8C38.1,42.6,38.6,42.9,38.7,42.9z M64.1,42.9
	c0.1,0,0.5-0.4,1-0.8l0.7-0.8l-0.9-1l-0.9-1l-0.7,0.7c-0.4,0.4-0.7,0.8-0.7,1c0,0.2,0.3,0.7,0.7,1.1C63.6,42.6,64,42.9,64.1,42.9z
	 M46.8,34.9l4.5-4.5l4.5,4.5l4.5,4.5l0.9-0.9l0.9-0.9l-5.4-5.6l-5.4-5.6L46,32.1l-5.4,5.6l0.8,0.9l0.8,0.9L46.8,34.9z M38.6,35.6
	c0.1,0,3-2.8,6.5-6.3l6.3-6.3l6.4,6.3l6.4,6.3l0.8-0.8c0.4-0.4,0.8-0.9,0.8-1.1c0-0.2-3.2-3.6-7.2-7.5l-7.1-7.2l-5.5,5.6
	c-3,3.1-6.3,6.4-7.2,7.4L37,34l0.8,0.8C38.1,35.2,38.5,35.6,38.6,35.6z"/>
</svg>
