<?xml version="1.0" encoding="utf-8"?>
<!-- Generator: Adobe Illustrator 23.0.4, SVG Export Plug-In . SVG Version: 6.00 Build 0)  -->
<svg version="1.1" id="Layer_1" xmlns="http://www.w3.org/2000/svg" xmlns:xlink="http://www.w3.org/1999/xlink" x="0px" y="0px"
	 viewBox="0 0 255.8 207" style="enable-background:new 0 0 255.8 207;" xml:space="preserve">
<style type="text/css">
	.st0{fill:#FFFFFF;}
</style>
<title>deversifi</title>
<path class="st0" d="M102.4,74.6c1.1-1,1.9-1.8,2.7-2.6c9.7-9.6,19.3-19.3,29-29c1-1.1,2.1-2,3.3-2.9c3-2.1,6.5-1.8,9.2,0.5
	c0.4,0.3,0.8,0.7,1.1,1.1c19,19,38,38,57.1,57.1c0.2,0.2,0.3,0.3,0.4,0.4c3.6,3.8,3.6,7.9,0,11.6c-2,2-4,4-6,6
	c-16,16-32.1,31.9-47.9,48.1c-4.5,4.6-9.6,4.3-13.8,0.1c-18.1-18.3-36.3-36.5-54.6-54.7c-0.6-0.6-1.3-1.1-1.8-1.8
	c-1.1-1.3-1.9-1-3.1,0.1c-4.4,4.1-4.6,8.5-0.4,12.8c7,7.1,14.1,14.2,21.2,21.3c1,0.9,2.1,1.7,3.2,2.5c-2.4,2.2-4.2,4.1-6.3,5.6
	c-2.4,1.9-6.3,1.6-8.8-0.3c-0.6-0.5-1.2-1.1-1.8-1.7c-11.5-11.5-22.9-23.1-34.6-34.4c-4.1-3.9-3.9-9.5,0.1-13.3
	c11-10.6,21.7-21.3,32.3-32.3c3.6-3.8,9.4-4.6,13.3,0.1C98.3,70.8,100.3,72.6,102.4,74.6z"/>
</svg>
