<?xml version="1.0" encoding="utf-8"?>
<!-- Generator: Adobe Illustrator 23.0.4, SVG Export Plug-In . SVG Version: 6.00 Build 0)  -->
<svg version="1.1"
	 id="svg3908" xmlns:cc="http://creativecommons.org/ns#" xmlns:dc="http://purl.org/dc/elements/1.1/" xmlns:rdf="http://www.w3.org/1999/02/22-rdf-syntax-ns#" xmlns:svg="http://www.w3.org/2000/svg"
	 xmlns="http://www.w3.org/2000/svg" xmlns:xlink="http://www.w3.org/1999/xlink" x="0px" y="0px" viewBox="0 0 100 100"
	 style="enable-background:new 0 0 100 100;" xml:space="preserve">
<style type="text/css">
	.st0{fill:#FFFFFF;}
</style>
<path id="path3942" class="st0" d="M22.8,80.7c-1.6-0.6-2.8-1.6-3.4-2.8c-0.5-1-0.5-1.3-0.5-5c0-3.8,0-4,0.5-5
	c0.6-1.3,1.6-2.1,3.4-2.8c1.6-0.6,4-0.5,5.5,0.2c1.5,0.7,2.5,1.9,2.9,3.2c0.4,1.3,0.5,5,0.1,5.3C31,74,29.7,74,26.5,74h-4.4v1
	c0,2.7,3.2,3.8,5.6,1.9l0.7-0.5l1.3,0.7c0.7,0.4,1.3,0.8,1.4,0.9c0.2,0.3-1.5,1.8-2.6,2.3C27.2,81.1,24.3,81.3,22.8,80.7L22.8,80.7z
	 M28.3,70.4c0-1.6-2-2.7-3.9-2.1c-1.3,0.3-1.9,1-2,2l-0.2,0.9h3h3L28.3,70.4L28.3,70.4z M50.6,80.9c-2.1-0.3-4-1.6-4.7-3.2
	c-0.4-0.8-0.4-1.3-0.4-4.8c0-4.4,0.1-5,1.5-6.2c1.1-0.9,2.2-1.5,3.8-1.7c1.2-0.2,1.6-0.2,2.9,0.1c1.9,0.5,3.4,1.5,4.2,2.8l0.6,1V73
	v4.2l-0.6,1C56.5,80.1,53.4,81.3,50.6,80.9L50.6,80.9z M53.8,77.1c0.5-0.3,0.9-0.7,1.1-1c0.3-0.6,0.3-5.7,0.1-6.5
	c-0.7-1.7-5.1-1.8-6-0.1c-0.3,0.7-0.3,5.9,0,6.6c0.1,0.3,0.7,0.7,1.2,1C51.4,77.7,52.8,77.7,53.8,77.1L53.8,77.1z M60.5,74.9
	l0.1-6.2l0.6-1c0.7-1.1,2.2-2.2,3.8-2.6c0.9-0.3,3.3-0.3,3.6-0.1c0.1,0.1-0.3,0.6-0.7,1.1c-0.5,0.5-0.9,1.2-1.1,1.5
	c-0.1,0.4-0.4,0.7-1,0.8c-0.4,0.1-1,0.5-1.3,0.8l-0.5,0.5l-0.1,5.7l-0.1,5.7H62h-1.7L60.5,74.9z M73.3,80.9
	c-2.1-0.4-3.7-1.4-4.5-2.8l-0.6-1v-4.2v-4.2l0.6-1c1.1-1.9,4.1-3.2,6.5-3c2.5,0.3,4.6,1.6,5.4,3.3c0.4,0.8,0.4,1.3,0.4,4.8
	c0,3.6-0.1,4-0.4,4.8C79.6,80,76.2,81.5,73.3,80.9z M76.2,77.3c0.4-0.1,0.9-0.5,1.1-0.9c0.4-0.5,0.5-0.8,0.5-3.6
	c0-2.3-0.1-3.2-0.3-3.5c-1.1-1.7-5.3-1.4-5.9,0.3c-0.3,1-0.3,5.4,0.1,6.3C72.2,77.3,74.6,78,76.2,77.3L76.2,77.3z M36.7,74.6v-6.2
	l-1.2,0.1c-0.7,0.1-1.5,0.2-1.9,0.3c-0.7,0.1-0.7,0.1-0.9-0.5c-0.1-0.3-0.3-0.9-0.7-1.4c-0.3-0.5-0.5-0.9-0.5-0.9
	c0.1-0.1,0.9-0.3,2-0.5c2.7-0.5,7-0.5,9.7,0c1.1,0.2,2,0.5,2.1,0.5s-0.1,0.4-0.4,0.7c-0.3,0.3-0.7,0.9-0.8,1.4
	c-0.2,0.7-0.3,0.7-0.9,0.6c-0.3-0.1-1.2-0.2-1.8-0.3l-1.2-0.1v6.2v6.2h-1.7h-1.7C36.7,80.9,36.7,74.6,36.7,74.6z M46.6,60.8
	c-3.4-0.9-6.2-3-7.2-5.5c-0.5-1.2-0.5-1.5-0.5-7.5c-0.1-7,0-7.7,1.3-9.7c1.8-2.8,5.8-4.7,9.9-4.7c3.4,0,6.4,1.2,8.5,3.4
	c1.9,2.1,2.1,2.9,2.3,7.5c0.1,3.2,0.1,3.9-0.3,4.3l-0.3,0.5h-7.9h-7.8l0.1,1.8c0.1,2.3,0.6,3.2,2.4,4.1c1.1,0.5,1.4,0.6,3.1,0.6
	c1.6,0,2-0.1,3-0.6c0.6-0.3,1.3-0.9,1.7-1.2l0.5-0.6l1.1,0.5c0.6,0.3,1.7,0.9,2.6,1.4l1.4,0.8l-0.3,0.6c-0.5,0.9-2.2,2.3-3.6,3.1
	C53.8,61.1,49.7,61.6,46.6,60.8L46.6,60.8z M55.1,44.2c0.3-0.4-0.1-2.4-0.6-3.2c-0.3-0.4-0.9-0.9-1.7-1.3c-2.1-1-5.1-0.7-6.9,0.7
	c-0.9,0.7-1.3,1.6-1.3,3v1.1h5.2C53.3,44.4,55,44.3,55.1,44.2z M33.2,44.9c-3.6-0.9-6.5-2.9-7.6-5.2c-0.6-1.2-0.8-3.6-0.4-5
	c0.5-1.8,2.4-4.5,8.1-11.3c3.1-3.7,3.8-4.5,4.3-4.5c0.3,0,0.6,0.1,0.7,0.3c-0.1,0.1-0.5,1.4-1.1,2.9c-1.5,3.4-2.4,6.4-2.6,8.1
	c-0.1,1.2-0.1,1.4,0.4,2.1c0.7,1,1.8,1.5,3.6,1.6l1.5,0.1L39,35.3c-2,2.2-2.8,4.4-2.8,8.1v2.1h-0.6C35.2,45.4,34.2,45.2,33.2,44.9z
	 M63.9,43.4c0-3.6-0.7-5.8-2.8-8.1L60,34l1.5-0.1c1.8-0.1,3-0.6,3.6-1.6c0.4-0.6,0.5-0.9,0.4-2.1c-0.1-1.7-1.1-4.7-2.6-8.1
	c-0.6-1.5-1.1-2.8-1-3c0.1-0.2,0.3-0.3,0.7-0.3c0.4,0,1.2,0.8,4.3,4.5c4.6,5.6,6.4,7.9,7.4,9.7c0.8,1.4,0.8,1.5,0.8,3.5
	c0,1.8-0.1,2.2-0.5,3.1C73.5,42,70.5,44,66.8,45C63.8,45.7,63.9,45.8,63.9,43.4z"/>
</svg>
