<?xml version="1.0" encoding="utf-8"?>
<!-- Generator: Adobe Illustrator 23.0.4, SVG Export Plug-In . SVG Version: 6.00 Build 0)  -->
<svg version="1.1"
	 id="svg3908" xmlns:cc="http://creativecommons.org/ns#" xmlns:dc="http://purl.org/dc/elements/1.1/" xmlns:rdf="http://www.w3.org/1999/02/22-rdf-syntax-ns#" xmlns:svg="http://www.w3.org/2000/svg"
	 xmlns="http://www.w3.org/2000/svg" xmlns:xlink="http://www.w3.org/1999/xlink" x="0px" y="0px" viewBox="0 0 80.2 83"
	 style="enable-background:new 0 0 80.2 83;" xml:space="preserve">
<style type="text/css">
	.st0{fill:#FFFFFF;}
</style>
<path id="path3942" class="st0" d="M5.4,80.7c-2.1-0.8-3.6-2.1-4.4-3.6c-0.6-1.3-0.7-1.6-0.7-6.4c0-4.9,0-5.1,0.7-6.4
	c0.8-1.6,2.1-2.7,4.3-3.5c2.1-0.8,5.1-0.6,7,0.3c1.9,0.9,3.2,2.4,3.7,4c0.5,1.7,0.6,6.3,0.1,6.8c-0.3,0.3-1.9,0.3-6,0.3H4.4v1.3
	c0,3.4,4,4.9,7.1,2.5l0.9-0.7l1.7,0.9c0.9,0.5,1.7,1,1.8,1.1c0.3,0.4-1.9,2.3-3.3,3C11,81.3,7.3,81.5,5.4,80.7L5.4,80.7z M12.3,67.6
	c0-2.1-2.6-3.4-5-2.7c-1.6,0.4-2.4,1.3-2.6,2.6l-0.2,1h3.9h3.9L12.3,67.6L12.3,67.6z M40.9,80.9c-2.7-0.4-5.1-2.1-6-4
	c-0.5-1-0.5-1.6-0.5-6.2c0-5.7,0.2-6.4,2-8c1.4-1.2,2.8-1.9,4.9-2.2c1.5-0.3,2.1-0.3,3.7,0.2c2.4,0.6,4.4,1.9,5.3,3.5l0.8,1.3v5.3
	v5.3l-0.8,1.3C48.4,80,44.4,81.5,40.9,80.9L40.9,80.9z M45,76.1c0.6-0.3,1.2-0.9,1.4-1.3c0.4-0.8,0.4-7.3,0.1-8.3
	c-0.9-2.2-6.5-2.3-7.6-0.2c-0.4,0.9-0.4,7.5,0,8.5c0.2,0.3,0.9,0.9,1.5,1.3C41.9,76.9,43.6,76.9,45,76.1L45,76.1z M53.5,73.3
	l0.1-7.9l0.8-1.3c0.9-1.4,2.8-2.8,4.8-3.3c1.2-0.3,4.2-0.4,4.5-0.2c0.1,0.1-0.3,0.8-0.9,1.4c-0.6,0.7-1.2,1.5-1.4,2
	c-0.2,0.5-0.5,0.9-1.3,1c-0.5,0.2-1.3,0.6-1.6,1l-0.7,0.7L57.7,74l-0.1,7.3h-2.1h-2.1L53.5,73.3z M69.8,80.9
	c-2.7-0.5-4.7-1.8-5.7-3.6L63.3,76v-5.3v-5.3l0.8-1.3c1.5-2.4,5.2-4.1,8.3-3.8c3.2,0.3,5.9,2.1,6.9,4.2c0.5,1,0.5,1.6,0.5,6.2
	c0,4.5-0.1,5.1-0.5,6.2C77.9,79.8,73.5,81.7,69.8,80.9z M73.6,76.4c0.5-0.2,1.1-0.7,1.5-1.1c0.5-0.7,0.6-1,0.6-4.6
	c0-3-0.1-4-0.4-4.5c-1.5-2.1-6.8-1.8-7.5,0.4c-0.4,1.3-0.3,6.9,0.1,8.1C68.5,76.4,71.5,77.2,73.6,76.4L73.6,76.4z M23.1,73v-8
	l-1.5,0.2c-0.9,0.1-2,0.3-2.5,0.3c-0.9,0.2-0.9,0.1-1.1-0.6c-0.1-0.4-0.4-1.2-0.9-1.8c-0.3-0.6-0.7-1.1-0.6-1.1
	c0.1-0.1,1.2-0.3,2.6-0.6c3.4-0.7,9-0.7,12.3,0c1.4,0.3,2.6,0.6,2.7,0.7s-0.2,0.5-0.5,0.9s-0.9,1.2-1,1.8c-0.3,0.9-0.3,0.9-1.1,0.8
	c-0.4-0.1-1.5-0.3-2.3-0.3l-1.5-0.2v8v8h-2.2h-2.4C23.1,81,23.1,73,23.1,73z M35.7,55.3c-4.3-1.1-7.9-3.9-9.2-7
	c-0.6-1.5-0.6-1.9-0.7-9.6c-0.1-8.9,0-9.9,1.6-12.3c2.3-3.6,7.4-6,12.7-6c4.4,0,8.1,1.5,10.8,4.4c2.5,2.7,2.7,3.7,2.9,9.6
	c0.1,4.1,0.1,5-0.3,5.5l-0.4,0.6h-10h-9.9l0.1,2.3c0.1,3,0.8,4.1,3.1,5.2c1.4,0.7,1.8,0.8,3.9,0.8c2.1,0,2.6-0.1,3.8-0.8
	c0.8-0.4,1.7-1.1,2.1-1.5l0.7-0.8l1.5,0.7c0.8,0.4,2.2,1.2,3.3,1.8l1.8,1L53.1,50c-0.7,1.1-2.8,3-4.6,3.9
	C44.9,55.7,39.7,56.3,35.7,55.3L35.7,55.3z M46.6,34c0.3-0.5-0.2-3.1-0.8-4c-0.3-0.5-1.2-1.2-2.1-1.6c-2.7-1.3-6.5-0.9-8.8,0.9
	c-1.1,0.9-1.6,2.1-1.6,3.8v1.4h6.6C44.3,34.3,46.5,34.2,46.6,34z M18.6,35c-4.6-1.2-8.3-3.7-9.7-6.6c-0.8-1.5-1-4.6-0.5-6.3
	c0.6-2.3,3.1-5.7,10.4-14.5c3.9-4.7,4.9-5.7,5.5-5.7c0.3,0,0.8,0.2,0.9,0.4c-0.1,0.1-0.7,1.8-1.5,3.7c-1.9,4.4-3.1,8.2-3.3,10.4
	c-0.1,1.5-0.1,1.8,0.5,2.7c0.9,1.3,2.3,1.9,4.6,2.1l2,0.1L26,22.9c-2.6,2.8-3.5,5.7-3.5,10.3v2.7h-0.8C21.2,35.7,19.9,35.3,18.6,35z
	 M57.8,33c0-4.6-0.9-7.4-3.5-10.3l-1.5-1.6l2-0.1c2.3-0.2,3.8-0.8,4.6-2.1c0.5-0.8,0.6-1.1,0.5-2.7c-0.2-2.1-1.4-6-3.3-10.4
	c-0.8-1.9-1.4-3.5-1.3-3.8s0.4-0.4,0.9-0.4s1.5,1,5.5,5.7c5.9,7.1,8.1,10,9.4,12.4c1,1.8,1,1.9,1,4.5c0,2.3-0.1,2.8-0.7,3.9
	c-1.5,3-5.3,5.6-10,6.8C57.7,36,57.8,36.1,57.8,33z"/>
</svg>
