<?xml version="1.0" encoding="utf-8"?>
<!-- Generator: Adobe Illustrator 23.0.4, SVG Export Plug-In . SVG Version: 6.00 Build 0)  -->
<svg version="1.1"
	 id="svg3908" xmlns:cc="http://creativecommons.org/ns#" xmlns:dc="http://purl.org/dc/elements/1.1/" xmlns:rdf="http://www.w3.org/1999/02/22-rdf-syntax-ns#" xmlns:svg="http://www.w3.org/2000/svg"
	 xmlns="http://www.w3.org/2000/svg" xmlns:xlink="http://www.w3.org/1999/xlink" x="0px" y="0px" viewBox="0 0 100 100"
	 style="enable-background:new 0 0 100 100;" xml:space="preserve">
<style type="text/css">
	.st0{fill:#FFFFFF;}
</style>
<path id="path3942" class="st0" d="M46.4,78.6c-4.5-1.2-8.3-4.1-9.6-7.4c-0.7-1.6-0.7-2-0.8-10.1c-0.1-9.4,0-10.4,1.7-13
	c2.4-3.8,7.7-6.4,13.3-6.4c4.6,0,8.6,1.6,11.4,4.6c2.6,2.8,2.9,3.9,3.1,10.2c0.1,4.4,0,5.2-0.3,5.8L64.8,63H54.2H43.7l0.1,2.5
	c0.1,3.2,0.8,4.4,3.2,5.5c1.4,0.7,1.9,0.8,4.1,0.8c2.2,0,2.7-0.1,4-0.8c0.8-0.4,1.8-1.2,2.3-1.6l0.8-0.8l1.5,0.8
	c0.8,0.4,2.4,1.3,3.4,1.9l1.9,1.1l-0.5,0.9c-0.7,1.2-3,3.1-4.9,4.1C56.1,79.2,50.6,79.7,46.4,78.6L46.4,78.6z M57.9,56.3
	c0.3-0.5-0.2-3.3-0.8-4.2c-0.4-0.6-1.3-1.3-2.3-1.7c-2.8-1.4-6.9-1-9.3,0.9c-1.2,0.9-1.7,2.2-1.7,4v1.4h7
	C55.4,56.6,57.8,56.5,57.9,56.3z M28.3,57.3c-4.9-1.3-8.8-3.9-10.2-7c-0.8-1.6-1.1-4.9-0.6-6.7c0.7-2.4,3.3-6.1,10.9-15.3
	c4.2-5,5.2-6.1,5.8-6.1c0.4,0,0.8,0.2,0.9,0.4c0.1,0.2-0.5,2-1.4,4c-2,4.7-3.3,8.7-3.5,11c-0.1,1.6-0.1,1.9,0.5,2.8
	c0.9,1.3,2.4,2,4.9,2.2l2,0.1l-1.5,1.7c-2.7,3-3.7,6-3.7,10.8V58l-0.8,0C31.1,57.9,29.7,57.6,28.3,57.3z M69.8,55.2
	c0-4.9-1-7.8-3.7-10.8l-1.5-1.7l2-0.1c2.5-0.2,4-0.8,4.9-2.2c0.6-0.9,0.6-1.2,0.5-2.8c-0.2-2.3-1.5-6.3-3.5-11c-0.8-2-1.5-3.8-1.4-4
	c0.1-0.2,0.5-0.4,0.9-0.4c0.6,0,1.6,1.1,5.8,6.1c6.2,7.5,8.6,10.6,9.9,13.1c1,1.9,1.1,2,1.1,4.7c0,2.4-0.1,3-0.7,4.2
	c-1.5,3.1-5.6,5.9-10.6,7.1C69.6,58.3,69.8,58.4,69.8,55.2z"/>
</svg>
