<?xml version="1.0" encoding="utf-8"?>
<!-- Generator: Adobe Illustrator 23.0.4, SVG Export Plug-In . SVG Version: 6.00 Build 0)  -->
<svg version="1.1"
	 id="svg3908" xmlns:cc="http://creativecommons.org/ns#" xmlns:dc="http://purl.org/dc/elements/1.1/" xmlns:rdf="http://www.w3.org/1999/02/22-rdf-syntax-ns#" xmlns:svg="http://www.w3.org/2000/svg"
	 xmlns="http://www.w3.org/2000/svg" xmlns:xlink="http://www.w3.org/1999/xlink" x="0px" y="0px" viewBox="0 0 100 100"
	 style="enable-background:new 0 0 100 100;" xml:space="preserve">
<style type="text/css">
	.st0{fill:#FFFFFF;}
</style>
<path id="path3942" class="st0" d="M15.3,89.2c-2.1-0.8-3.6-2.1-4.4-3.6c-0.6-1.3-0.7-1.6-0.7-6.4c0-4.9,0-5.1,0.7-6.4
	c0.8-1.6,2.1-2.7,4.3-3.5c2.1-0.8,5.1-0.6,7,0.3c1.9,0.9,3.2,2.4,3.7,4c0.5,1.7,0.6,6.3,0.1,6.8c-0.3,0.3-1.9,0.3-6,0.3h-5.7V82
	c0,3.4,4,4.9,7.1,2.5l0.9-0.7l1.7,0.9c0.9,0.5,1.7,1,1.8,1.1c0.3,0.4-1.9,2.3-3.3,3C20.9,89.8,17.2,90,15.3,89.2L15.3,89.2z
	 M22.2,76.1c0-2.1-2.6-3.4-5-2.7c-1.6,0.4-2.4,1.3-2.6,2.6L14.4,77h3.9h3.9L22.2,76.1L22.2,76.1z M50.8,89.4c-2.7-0.4-5.1-2.1-6-4
	c-0.5-1-0.5-1.6-0.5-6.2c0-5.7,0.2-6.4,2-8c1.4-1.2,2.8-1.9,4.9-2.2c1.5-0.3,2.1-0.3,3.7,0.2c2.4,0.6,4.4,1.9,5.3,3.5l0.8,1.3v5.3
	v5.3l-0.8,1.3C58.3,88.5,54.3,90,50.8,89.4L50.8,89.4z M54.9,84.6c0.6-0.3,1.2-0.9,1.4-1.3c0.4-0.8,0.4-7.3,0.1-8.3
	c-0.9-2.2-6.5-2.3-7.6-0.2c-0.4,0.9-0.4,7.5,0,8.5c0.2,0.3,0.9,0.9,1.5,1.3C51.8,85.4,53.5,85.4,54.9,84.6L54.9,84.6z M63.4,81.8
	l0.1-7.9l0.8-1.3c0.9-1.4,2.8-2.8,4.8-3.3c1.2-0.3,4.2-0.4,4.5-0.2c0.1,0.1-0.3,0.8-0.9,1.4c-0.6,0.7-1.2,1.5-1.4,2
	c-0.2,0.5-0.5,0.9-1.3,1c-0.5,0.2-1.3,0.6-1.6,1l-0.7,0.7l-0.1,7.3l-0.1,7.3h-2.1h-2.1L63.4,81.8z M79.7,89.4
	c-2.7-0.5-4.7-1.8-5.7-3.6l-0.8-1.3v-5.3v-5.3l0.8-1.3c1.5-2.4,5.2-4.1,8.3-3.8c3.2,0.3,5.9,2.1,6.9,4.2c0.5,1,0.5,1.6,0.5,6.2
	c0,4.5-0.1,5.1-0.5,6.2C87.8,88.3,83.4,90.2,79.7,89.4z M83.5,84.9c0.5-0.2,1.1-0.7,1.5-1.1c0.5-0.7,0.6-1,0.6-4.6
	c0-3-0.1-4-0.4-4.5c-1.5-2.1-6.8-1.8-7.5,0.4c-0.4,1.3-0.3,6.9,0.1,8.1C78.4,84.9,81.4,85.7,83.5,84.9L83.5,84.9z M33,81.5v-8
	l-1.5,0.2c-0.9,0.1-2,0.3-2.5,0.3c-0.9,0.2-0.9,0.1-1.1-0.6c-0.1-0.4-0.4-1.2-0.9-1.8c-0.3-0.6-0.7-1.1-0.6-1.1
	c0.1-0.1,1.2-0.3,2.6-0.6c3.4-0.7,9-0.7,12.3,0c1.4,0.3,2.6,0.6,2.7,0.7s-0.2,0.5-0.5,0.9c-0.3,0.4-0.9,1.2-1,1.8
	c-0.3,0.9-0.3,0.9-1.1,0.8c-0.4-0.1-1.5-0.3-2.3-0.3l-1.5-0.2v8v8h-2.2H33C33,89.5,33,81.5,33,81.5z M45.6,63.8
	c-4.3-1.1-7.9-3.9-9.2-7c-0.6-1.5-0.6-1.9-0.7-9.6c-0.1-8.9,0-9.9,1.6-12.3c2.3-3.6,7.4-6,12.7-6c4.4,0,8.1,1.5,10.8,4.4
	c2.5,2.7,2.7,3.7,2.9,9.6c0.1,4.1,0.1,5-0.3,5.5L63,49H53h-9.9l0.1,2.3c0.1,3,0.8,4.1,3.1,5.2c1.4,0.7,1.8,0.8,3.9,0.8
	c2.1,0,2.6-0.1,3.8-0.8c0.8-0.4,1.7-1.1,2.1-1.5l0.7-0.8l1.5,0.7c0.8,0.4,2.2,1.2,3.3,1.8l1.8,1l-0.4,0.8c-0.7,1.1-2.8,3-4.6,3.9
	C54.8,64.2,49.6,64.8,45.6,63.8L45.6,63.8z M56.5,42.5c0.3-0.5-0.2-3.1-0.8-4c-0.3-0.5-1.2-1.2-2.1-1.6c-2.7-1.3-6.5-0.9-8.8,0.9
	c-1.1,0.9-1.6,2.1-1.6,3.8v1.4h6.6C54.2,42.8,56.4,42.7,56.5,42.5z M28.5,43.5c-4.6-1.2-8.3-3.7-9.7-6.6c-0.8-1.5-1-4.6-0.5-6.3
	c0.6-2.3,3.1-5.7,10.4-14.5c3.9-4.7,4.9-5.7,5.5-5.7c0.3,0,0.8,0.2,0.9,0.4c-0.1,0.1-0.7,1.8-1.5,3.7c-1.9,4.4-3.1,8.2-3.3,10.4
	c-0.1,1.5-0.1,1.8,0.5,2.7c0.9,1.3,2.3,1.9,4.6,2.1l2,0.1l-1.5,1.6c-2.6,2.8-3.5,5.7-3.5,10.3v2.7h-0.8
	C31.1,44.2,29.8,43.8,28.5,43.5z M67.7,41.5c0-4.6-0.9-7.4-3.5-10.3l-1.5-1.6l2-0.1c2.3-0.2,3.8-0.8,4.6-2.1
	c0.5-0.8,0.6-1.1,0.5-2.7c-0.2-2.1-1.4-6-3.3-10.4c-0.8-1.9-1.4-3.5-1.3-3.8c0.1-0.3,0.4-0.4,0.9-0.4c0.5,0,1.5,1,5.5,5.7
	c5.9,7.1,8.1,10,9.4,12.4c1,1.8,1,1.9,1,4.5c0,2.3-0.1,2.8-0.7,3.9c-1.5,3-5.3,5.6-10,6.8C67.6,44.5,67.7,44.6,67.7,41.5z"/>
</svg>
