<?xml version="1.0" encoding="UTF-8"?>
<svg width="111px" height="110px" viewBox="0 0 111 110" version="1.1" xmlns="http://www.w3.org/2000/svg" xmlns:xlink="http://www.w3.org/1999/xlink">
    <!-- Generator: Sketch 55.2 (78181) - https://sketchapp.com -->
    <title>gnosis_logo_vertical_black</title>
    <desc>Created with Sketch.</desc>
    <g id="Page-1" stroke="none" stroke-width="1" fill="none" fill-rule="evenodd">
        <g id="Artboard" transform="translate(-510.000000, -108.000000)" fill="#FFFFFF" fill-rule="nonzero">
            <g id="gnosis_logo_vertical_black" transform="translate(510.000000, 108.000000)">
                <path d="M33.1363393,62 C36.2946407,62.0012499 39.3636359,60.9521866 41.86,59.0180223 L21.833835,39 C18.5089495,43.3090267 17.9232521,49.1328608 20.3235547,54.0173498 C22.7238573,58.9018387 27.6927455,61.9975663 33.1363393,62 L33.1363393,62 Z" id="Path"></path>
                <path d="M92.86,47.722 C92.8626377,44.564359 91.814427,41.495689 89.8806933,39 L69.86,59.025819 C74.169026,62.3510914 79.9928591,62.9368569 84.8773472,60.5362751 C89.7618354,58.1356932 92.8575624,53.166227 92.86,47.722 L92.86,47.722 Z" id="Path"></path>
                <path d="M102.905045,27 L94.0314511,35.8204972 C100.744514,43.7972979 100.219418,55.5490572 92.821346,62.9028615 C85.4232744,70.2566658 73.6007736,70.7786206 65.5759554,64.1057257 L55.8559824,73.7675381 L46.1360093,64.1057257 C38.1111911,70.7786206 26.2886904,70.2566658 18.8906188,62.9028615 C11.4925472,55.5490572 10.9674503,43.7972979 17.6805137,35.8204972 L13.1272058,31.2944346 L8.81495547,27.0079872 C3.59753082,35.5447191 0.845328429,45.3445428 0.86,55.3331516 C0.852023572,85.5326383 25.4773838,110 55.8559824,110 C86.234581,110 110.86,85.5326383 110.86,55.3251644 C110.874672,45.3365557 108.122469,35.5367319 102.905045,27 Z" id="Path"></path>
                <path d="M95.0090491,16.969038 C83.9495401,5.3862002 68.3872003,-0.782927411 52.4038731,0.0797546792 C36.420546,0.942436769 21.6111356,8.7508454 11.86,21.4569143 L55.36,65 L98.86,21.4569143 C97.6577419,19.8928601 96.3722311,18.3947332 95.0090491,16.969038 L95.0090491,16.969038 Z M55.36,7.14913724 C68.0100073,7.08539732 80.1532783,12.12082 89.0524847,21.1203236 L55.36,54.8461798 L21.6675153,21.1203236 C30.5667217,12.12082 42.7099927,7.08539732 55.36,7.14913724 L55.36,7.14913724 Z" id="Shape"></path>
            </g>
        </g>
    </g>
</svg>