<?xml version="1.0" encoding="UTF-8"?>
<svg width="150px" height="160px" viewBox="0 0 150 160" version="1.1" xmlns="http://www.w3.org/2000/svg" xmlns:xlink="http://www.w3.org/1999/xlink">
    <!-- Generator: Sketch 55.2 (78181) - https://sketchapp.com -->
    <title>gnosis_logo_vertical_black</title>
    <desc>Created with Sketch.</desc>
    <g id="Page-1" stroke="none" stroke-width="1" fill="none" fill-rule="evenodd">
        <g id="Artboard" transform="translate(-490.000000, -108.000000)" fill="#FFFFFF" fill-rule="nonzero">
            <g id="gnosis_logo_vertical_black" transform="translate(490.000000, 108.000000)">
                <path d="M0.86,142.099815 C0.86,131.916007 7.4084058,124 18.5838923,124 C23.6535404,124 29.1657557,126.12939 32.7592961,130.281701 L26.9502692,135.227209 C24.7311391,132.999749 21.7185462,131.754162 18.5812422,131.76695 C13.6069979,131.76695 9.47283644,135.573235 9.47283644,142.099815 C9.47283644,147.785287 12.968323,152.435342 18.9257557,152.435342 C21.0417418,152.461325 23.1279301,151.932901 24.9785921,150.902181 L24.9785921,146.747209 L18.1890269,146.747209 L18.1890269,139.925176 L32.86,139.925176 L32.86,155.698632 C29.6586749,158.168725 24.3425673,160 18.9284058,160 C8.83681159,160 0.86,153.521331 0.86,142.099815 Z" id="Path"></path>
                <path d="M38.8653812,134.452563 L46.6680717,134.452563 L46.6680717,137.313954 L46.7676233,137.313954 C48.6049995,135.167971 51.2977652,133.954018 54.1156054,134.001333 C59.163139,134.001333 62.86,136.511468 62.86,144.290452 L62.86,158.997298 L55.0573094,158.997298 L55.0573094,146.198046 C55.0573094,142.145084 53.7120179,140.977831 51.1613453,140.977831 C48.4707623,140.977831 46.6626906,142.83679 46.6626906,146.651977 L46.6626906,159 L38.86,159 L38.8653812,134.452563 Z" id="Path"></path>
                <path d="M65.86,147.525215 C65.86,140.178363 71.1219363,135 78.8904388,135 C86.4604276,135 91.86,140.080157 91.86,147.525215 C91.86,154.919843 86.4498402,160 78.8904388,160 C71.1325237,159.997346 65.86,154.821637 65.86,147.525215 Z M84.1020849,147.525215 C84.1020849,144.170294 81.8893189,141.853169 78.8904388,141.853169 C75.7909783,141.853169 73.6285025,144.220724 73.6285025,147.525215 C73.6285025,150.728846 75.8412685,153.194607 78.8904388,153.194607 C81.7913855,153.194607 84.1020849,150.827052 84.1020849,147.525215 Z" id="Shape"></path>
                <path d="M94.86,156.453596 L98.5293276,151.476425 C100.588589,153.30006 102.70197,154.18666 104.964181,154.18666 C106.520127,154.18666 107.326513,153.655762 107.326513,152.758544 C107.326513,151.962197 106.571541,151.476425 103.50565,150.53939 C99.3844216,149.305052 95.7638019,147.332765 95.7638019,142.698024 C95.7638019,137.816415 99.8227926,135 104.964181,135 C108.682216,135 111.396328,135.937035 114.261975,138.007538 L110.54394,143.382882 C108.833752,141.707899 106.723077,140.869079 105.064303,140.869079 C104.157795,140.869079 103.102457,141.261944 103.102457,142.196325 C103.102457,142.936928 104.008965,143.478444 106.471419,144.319918 C111.899643,146.146207 114.86,147.526543 114.86,152.2595 C114.86,156.74559 111.593866,160 104.847823,160 C100.991782,160.00265 97.5741118,158.818747 94.86,156.453596 Z" id="Path"></path>
                <path d="M117.86,127.353872 C117.86,124.978549 119.738238,123 122.336684,123 C124.93513,123 126.86,124.927953 126.86,127.353872 C126.86,129.875656 124.93513,131.80361 122.336684,131.80361 C119.738238,131.80361 117.86,129.865005 117.86,127.353872 Z M118.582798,134.810045 L126.095751,134.810045 L126.095751,159 L118.582798,159 L118.582798,134.810045 Z" id="Shape"></path>
                <path d="M129.86,156.453596 L133.528831,151.476425 C135.587814,153.30006 137.698203,154.18666 139.960108,154.18666 C141.51855,154.18666 142.322121,153.655762 142.322121,152.758544 C142.322121,151.962197 141.569957,151.476425 138.504481,150.53939 C134.381104,149.305052 130.76368,147.332765 130.76368,142.698024 C130.76368,137.816415 134.822121,135 139.962814,135 C143.683052,135 146.396797,135.937035 149.262056,138.007538 L145.541818,143.382882 C143.834567,141.707899 141.721472,140.869079 140.062922,140.869079 C139.159242,140.869079 138.104048,141.261944 138.104048,142.196325 C138.104048,142.936928 139.007727,143.478444 141.472554,144.319918 C146.900043,146.146207 149.86,147.526543 149.86,152.2595 C149.86,156.74559 146.591602,160 139.849177,160 C135.990952,160.00265 132.573745,158.818747 129.86,156.453596 Z" id="Path"></path>
                <path d="M53.1363393,62 C56.2946407,62.0012499 59.3636359,60.9521866 61.86,59.0180223 L41.833835,39 C38.5089495,43.3090267 37.9232521,49.1328608 40.3235547,54.0173498 C42.7238573,58.9018387 47.6927455,61.9975663 53.1363393,62 L53.1363393,62 Z" id="Path"></path>
                <path d="M112.86,47.722 C112.862638,44.564359 111.814427,41.495689 109.880693,39 L89.86,59.025819 C94.169026,62.3510914 99.9928591,62.9368569 104.877347,60.5362751 C109.761835,58.1356932 112.857562,53.166227 112.86,47.722 L112.86,47.722 Z" id="Path"></path>
                <path d="M122.905045,27 L114.031451,35.8204972 C120.744514,43.7972979 120.219418,55.5490572 112.821346,62.9028615 C105.423274,70.2566658 93.6007736,70.7786206 85.5759554,64.1057257 L75.8559824,73.7675381 L66.1360093,64.1057257 C58.1111911,70.7786206 46.2886904,70.2566658 38.8906188,62.9028615 C31.4925472,55.5490572 30.9674503,43.7972979 37.6805137,35.8204972 L33.1272058,31.2944346 L28.8149555,27.0079872 C23.5975308,35.5447191 20.8453284,45.3445428 20.86,55.3331516 C20.8520236,85.5326383 45.4773838,110 75.8559824,110 C106.234581,110 130.86,85.5326383 130.86,55.3251644 C130.874672,45.3365557 128.122469,35.5367319 122.905045,27 Z" id="Path"></path>
                <path d="M115.009049,16.969038 C103.94954,5.3862002 88.3872003,-0.782927411 72.4038731,0.0797546792 C56.420546,0.942436769 41.6111356,8.7508454 31.86,21.4569143 L75.36,65 L118.86,21.4569143 C117.657742,19.8928601 116.372231,18.3947332 115.009049,16.969038 L115.009049,16.969038 Z M75.36,7.14913724 C88.0100073,7.08539732 100.153278,12.12082 109.052485,21.1203236 L75.36,54.8461798 L41.6675153,21.1203236 C50.5667217,12.12082 62.7099927,7.08539732 75.36,7.14913724 L75.36,7.14913724 Z" id="Shape"></path>
            </g>
        </g>
    </g>
</svg>