<?xml version="1.0" encoding="utf-8"?>
<!-- Generator: Adobe Illustrator 23.0.4, SVG Export Plug-In . SVG Version: 6.00 Build 0)  -->
<svg version="1.1"
	 id="Layer_1" xmlns:cc="http://creativecommons.org/ns#" xmlns:dc="http://purl.org/dc/elements/1.1/" xmlns:inkscape="http://www.inkscape.org/namespaces/inkscape" xmlns:rdf="http://www.w3.org/1999/02/22-rdf-syntax-ns#" xmlns:sodipodi="http://sodipodi.sourceforge.net/DTD/sodipodi-0.dtd" xmlns:svg="http://www.w3.org/2000/svg"
	 xmlns="http://www.w3.org/2000/svg" xmlns:xlink="http://www.w3.org/1999/xlink" x="0px" y="0px" viewBox="0 0 100 100"
	 style="enable-background:new 0 0 100 100;" xml:space="preserve">
<style type="text/css">
	.st0{fill:#FFFFFF;}
</style>
<sodipodi:namedview  bordercolor="#666666" borderopacity="1" gridtolerance="10" guidetolerance="10" id="namedview5" inkscape:current-layer="Layer_1" inkscape:cx="61.748078" inkscape:cy="53.468214" inkscape:pageopacity="0" inkscape:pageshadow="2" inkscape:window-height="1017" inkscape:window-maximized="1" inkscape:window-width="1920" inkscape:window-x="0" inkscape:window-y="26" inkscape:zoom="6.6488144" objecttolerance="10" pagecolor="#ffffff" showgrid="false">
	</sodipodi:namedview>
<path id="path3" inkscape:connector-curvature="0" class="st0" d="M65.5,41.2l-1.4,1.5c1.1,1.8,1.5,4.2,0.7,6.4
	c-1.3,3.8-5.2,5.8-8.8,4.4c-0.5-0.2-1-0.4-1.4-0.7l-4.5,4.7l-4-4.2c-1.8,1.3-4.1,1.7-6.3,0.8c-3.7-1.4-5.6-5.7-4.3-9.6
	c0.2-0.6,0.5-1.1,0.8-1.6l-1.7-1.8l-0.3,0.6c-1.8,3-2.7,6.6-2.7,10.1c0,10.8,8.3,19.5,18.4,19.6h0c10.2,0,18.5-8.7,18.5-19.5
	c0-3.6-0.9-7.1-2.7-10.1L65.5,41.2z M38.4,45.1c-0.5,0.7-0.8,1.5-0.8,2.4c0,2.2,1.7,4,3.8,4c0.9,0,1.7-0.3,2.3-0.8L38.4,45.1z
	 M56.8,50.4c0.6,0.4,1.3,0.7,2.1,0.7c2.1,0,3.7-1.8,3.7-4c0-0.8-0.2-1.6-0.6-2.2L56.8,50.4z M50.1,54.5L34.8,38.4l0.6-0.7
	c3.8-4.3,8.9-6.6,14.4-6.6h0c5.6,0,10.9,2.5,14.7,6.9l0.6,0.7L50.1,54.5z M37.4,38.4l12.7,13.5l12.6-13.3c-3.4-3.6-8-5.6-12.8-5.6h0
	C45.2,33,40.7,34.9,37.4,38.4L37.4,38.4z M33.3,65l-1.8-0.1c-7.6-0.5-18.1-2.5-24.8-8.9c-4.2-4-4.9-7.7-5-7.9l-0.2-1.1h27.6L28.9,48
	c-0.1,1-0.2,2-0.2,3c0,4.4,1.2,8.8,3.5,12.5L33.3,65z M66.7,65l1-1.6c2.3-3.7,3.5-8,3.6-12.4c0-1-0.1-2-0.2-3L71,46.9h27.6L98.4,48
	c0,0.2-0.8,3.9-5,7.9c-6.8,6.4-17.2,8.4-24.8,8.9L66.7,65z"/>
</svg>
