<?xml version="1.0" encoding="utf-8"?>
<!-- Generator: Adobe Illustrator 23.0.4, SVG Export Plug-In . SVG Version: 6.00 Build 0)  -->
<svg version="1.1"
	 id="Layer_1" inkscape:version="0.92.4 (unknown)" xmlns:cc="http://creativecommons.org/ns#" xmlns:dc="http://purl.org/dc/elements/1.1/" xmlns:inkscape="http://www.inkscape.org/namespaces/inkscape" xmlns:rdf="http://www.w3.org/1999/02/22-rdf-syntax-ns#" xmlns:sodipodi="http://sodipodi.sourceforge.net/DTD/sodipodi-0.dtd" xmlns:svg="http://www.w3.org/2000/svg"
	 xmlns="http://www.w3.org/2000/svg" xmlns:xlink="http://www.w3.org/1999/xlink" x="0px" y="0px" viewBox="0 0 100 100"
	 style="enable-background:new 0 0 100 100;" xml:space="preserve">
<style type="text/css">
	.st0{fill:#FFFFFF;}
</style>
<sodipodi:namedview  bordercolor="#666666" borderopacity="1" gridtolerance="10" guidetolerance="10" id="namedview5" inkscape:current-layer="Layer_1" inkscape:cx="61.748078" inkscape:cy="53.468214" inkscape:pageopacity="0" inkscape:pageshadow="2" inkscape:window-height="1017" inkscape:window-maximized="1" inkscape:window-width="1920" inkscape:window-x="0" inkscape:window-y="26" inkscape:zoom="6.6488144" objecttolerance="10" pagecolor="#ffffff" showgrid="false">
	</sodipodi:namedview>
<path id="path3" inkscape:connector-curvature="0" class="st0" d="M17.6,70.6V77c-1.7,1.3-4.1,2.2-6.3,2.2c-4.8,0-8.6-3.8-8.6-8.8
	c0-4.9,3.8-8.7,8.7-8.7c2.3,0,4.7,0.9,6.3,2.4l-1.6,2.1c-1.3-1.2-3-2-4.7-2c-3.3,0-6,2.7-6,6.1c0,3.5,2.6,6.1,6,6.1
	c1.2,0,2.6-0.4,3.8-1.2v-4.8H17.6z M34,79.1l-8.7-12.4v12.4h-2.8V61.8h2.7L34,74.2V61.8h2.7v17.3L34,79.1z M58.1,70.5
	c0,4.9-3.8,8.8-8.7,8.8c-4.9,0-8.7-3.8-8.7-8.8c0-5,3.8-8.7,8.7-8.7C54.3,61.7,58.1,65.5,58.1,70.5z M43.5,70.5
	c0,3.4,2.7,6.1,5.9,6.1c3.2,0,5.8-2.7,5.8-6.1c0-3.4-2.6-6.1-5.8-6.1C46.2,64.4,43.5,67,43.5,70.5z M73.1,63.5L72,66
	c-1.8-1.1-3.5-1.6-4.8-1.6c-1.6,0-2.7,0.6-2.7,1.8c0,3.8,8.8,1.8,8.8,8c0,3.1-2.6,5-6.2,5c-2.6,0-5-1.1-6.7-2.7l1.2-2.5
	c1.7,1.6,3.8,2.5,5.5,2.5c1.9,0,3.1-0.8,3.1-2.1c0-3.8-8.8-1.7-8.8-7.8c0-3,2.4-4.8,6-4.8C69.5,61.7,71.6,62.4,73.1,63.5z
	 M77.6,79.1V61.8h2.8v17.3L77.6,79.1z M96.8,63.5L95.6,66c-1.8-1.1-3.5-1.6-4.8-1.6c-1.6,0-2.7,0.6-2.7,1.8c0,3.8,8.8,1.8,8.8,8
	c0,3.1-2.6,5-6.2,5c-2.6,0-5-1.1-6.7-2.7l1.2-2.5c1.7,1.6,3.8,2.5,5.5,2.5c1.9,0,3.1-0.8,3.1-2.1c0-3.8-8.8-1.7-8.8-7.8
	c0-3,2.4-4.8,6-4.8C93.2,61.7,95.3,62.4,96.8,63.5z M62.9,26.9l-1.2,1.2c0.9,1.5,1.2,3.5,0.6,5.4c-1.1,3.2-4.4,4.8-7.4,3.7
	c-0.4-0.2-0.8-0.4-1.2-0.6l-3.8,4L46.7,37c-1.5,1.1-3.5,1.4-5.3,0.7c-3.1-1.2-4.7-4.8-3.6-8c0.2-0.5,0.4-1,0.7-1.4l-1.4-1.5
	l-0.3,0.5c-1.5,2.5-2.3,5.5-2.3,8.5c0,9,6.9,16.3,15.4,16.3h0c8.5,0,15.4-7.3,15.4-16.3c0-3-0.8-5.9-2.2-8.5L62.9,26.9z M40.3,30.2
	c-0.4,0.6-0.7,1.3-0.7,2c0,1.8,1.4,3.3,3.1,3.3c0.7,0,1.4-0.3,1.9-0.7L40.3,30.2z M55.7,34.5c0.5,0.4,1.1,0.6,1.8,0.6
	c1.7,0,3.1-1.5,3.1-3.3c0-0.7-0.2-1.3-0.5-1.8L55.7,34.5z M50.1,38L37.3,24.5l0.5-0.6c3.2-3.6,7.4-5.5,12.1-5.5h0
	c4.7,0,9.1,2.1,12.3,5.8l0.5,0.6L50.1,38z M39.4,24.5l10.6,11.3l10.5-11.1c-2.8-3-6.7-4.7-10.7-4.7h0C45.9,20.1,42.3,21.6,39.4,24.5
	L39.4,24.5z M36,46.7l-1.5-0.1c-6.3-0.4-15.1-2.1-20.7-7.5c-3.5-3.3-4.1-6.4-4.2-6.6l-0.2-0.9h23.1l-0.1,0.9
	c-0.1,0.8-0.2,1.7-0.2,2.5c0,3.7,1,7.3,3,10.4L36,46.7z M64,46.7l0.8-1.3c1.9-3.1,3-6.6,3-10.3c0-0.8-0.1-1.7-0.2-2.5l-0.1-0.9h23.1
	l-0.2,0.9c0,0.1-0.7,3.3-4.2,6.6c-5.7,5.4-14.4,7-20.7,7.5L64,46.7z"/>
</svg>
