<?xml version="1.0" encoding="utf-8"?>
<!-- Generator: Adobe Illustrator 23.0.4, SVG Export Plug-In . SVG Version: 6.00 Build 0)  -->
<svg version="1.1" id="Layer_1" xmlns="http://www.w3.org/2000/svg" xmlns:xlink="http://www.w3.org/1999/xlink" x="0px" y="0px"
	 viewBox="0 0 111 110" style="enable-background:new 0 0 111 110;" xml:space="preserve">
<style type="text/css">
	.st0{fill:#FFFFFF;}
</style>
<title>gnosis_logo_vertical_black</title>
<desc>Created with Sketch.</desc>
<g id="Page-1">
	<g id="Artboard" transform="translate(-510.000000, -108.000000)">
		<g id="gnosis_logo_vertical_black" transform="translate(510.000000, 108.000000)">
			<path id="Path" class="st0" d="M42.5,59.1c1.9,0,3.7-0.6,5.1-1.8L35.8,45.6c-2,2.5-2.3,6-0.9,8.8C36.4,57.3,39.3,59.1,42.5,59.1
				L42.5,59.1z"/>
			<path class="st0" d="M77.6,50.7c0-1.9-0.6-3.7-1.8-5.1L64.1,57.4c2.5,2,6,2.3,8.8,0.9C75.8,56.8,77.6,53.9,77.6,50.7L77.6,50.7z"
				/>
			<path class="st0" d="M83.5,38.5l-5.2,5.2c3.9,4.7,3.6,11.6-0.7,15.9s-11.3,4.6-16,0.7L55.9,66l-5.7-5.7c-4.7,3.9-11.7,3.6-16-0.7
				s-4.7-11.2-0.7-15.9l-2.7-2.7l-2.5-2.5c-3.1,5-4.7,10.8-4.7,16.7C23.5,73,38,87.4,55.9,87.4S88.2,73,88.2,55.2
				C88.2,49.3,86.6,43.5,83.5,38.5z"/>
			<path id="Shape" class="st0" d="M78.9,32.6c-6.5-6.8-15.7-10.4-25.1-9.9c-9.4,0.5-18.1,5.1-23.9,12.6l25.6,25.6l25.6-25.6
				C80.4,34.3,79.7,33.5,78.9,32.6L78.9,32.6z M55.6,26.8c7.4,0,14.6,2.9,19.8,8.2L55.6,54.9L35.7,35.1C41,29.8,48.1,26.8,55.6,26.8
				L55.6,26.8z"/>
		</g>
	</g>
</g>
</svg>
