<?xml version="1.0" encoding="utf-8"?>
<!-- Generator: Adobe Illustrator 23.0.4, SVG Export Plug-In . SVG Version: 6.00 Build 0)  -->
<svg version="1.1"
	 id="Layer_1" inkscape:version="0.92.4 (unknown)" xmlns:cc="http://creativecommons.org/ns#" xmlns:dc="http://purl.org/dc/elements/1.1/" xmlns:inkscape="http://www.inkscape.org/namespaces/inkscape" xmlns:rdf="http://www.w3.org/1999/02/22-rdf-syntax-ns#" xmlns:sodipodi="http://sodipodi.sourceforge.net/DTD/sodipodi-0.dtd" xmlns:svg="http://www.w3.org/2000/svg"
	 xmlns="http://www.w3.org/2000/svg" xmlns:xlink="http://www.w3.org/1999/xlink" x="0px" y="0px" viewBox="0 0 100 65.1"
	 style="enable-background:new 0 0 100 65.1;" xml:space="preserve">
<style type="text/css">
	.st0{fill:#FFFFFF;}
</style>
<sodipodi:namedview  bordercolor="#666666" borderopacity="1" gridtolerance="10" guidetolerance="10" id="namedview5" inkscape:current-layer="Layer_1" inkscape:cx="61.748078" inkscape:cy="53.468214" inkscape:pageopacity="0" inkscape:pageshadow="2" inkscape:window-height="1017" inkscape:window-maximized="1" inkscape:window-width="1920" inkscape:window-x="0" inkscape:window-y="26" inkscape:zoom="6.6488144" objecttolerance="10" pagecolor="#ffffff" showgrid="false">
	</sodipodi:namedview>
<path id="path3" inkscape:connector-curvature="0" class="st0" d="M16.2,55.2v6.7c-1.7,1.4-4.3,2.4-6.7,2.4c-5.1,0-9-4-9-9.2
	c0-5.2,4-9.1,9.2-9.1c2.4,0,4.9,1,6.6,2.5l-1.6,2.2c-1.3-1.3-3.2-2.1-4.9-2.1c-3.5,0-6.2,2.8-6.2,6.4c0,3.6,2.8,6.4,6.3,6.4
	c1.3,0,2.7-0.5,3.9-1.2v-5H16.2z M33.4,64.1l-9.1-13v13h-2.9V46h2.8l9.2,13V46h2.8v18.1L33.4,64.1z M58.7,55.1c0,5.2-4,9.2-9.1,9.2
	c-5.1,0-9.1-4-9.1-9.2c0-5.2,4-9.1,9.1-9.1C54.7,45.9,58.7,49.9,58.7,55.1z M43.4,55.1c0,3.6,2.8,6.4,6.2,6.4c3.4,0,6.1-2.8,6.1-6.4
	c0-3.6-2.7-6.4-6.1-6.4C46.2,48.7,43.4,51.5,43.4,55.1z M74.5,47.7l-1.2,2.7c-1.9-1.2-3.7-1.7-5-1.7c-1.7,0-2.8,0.7-2.8,1.9
	c0,4,9.3,1.8,9.2,8.4c0,3.2-2.7,5.2-6.5,5.2c-2.7,0-5.2-1.2-7-2.9l1.2-2.6c1.8,1.7,4,2.6,5.8,2.6c2,0,3.2-0.8,3.2-2.2
	c0-4-9.3-1.8-9.3-8.2c0-3.1,2.5-5,6.2-5C70.7,45.9,72.9,46.6,74.5,47.7z M79.2,64.1V46h2.9v18.1L79.2,64.1z M99.3,47.7l-1.2,2.7
	c-1.9-1.2-3.7-1.7-5-1.7c-1.7,0-2.8,0.7-2.8,1.9c0,4,9.3,1.8,9.2,8.4c0,3.2-2.7,5.2-6.5,5.2c-2.7,0-5.2-1.2-7-2.9l1.2-2.6
	c1.8,1.7,4,2.6,5.8,2.6c2,0,3.2-0.8,3.2-2.2c0-4-9.3-1.8-9.3-8.2c0-3.1,2.5-5,6.2-5C95.6,45.9,97.7,46.6,99.3,47.7z M63.8,9.4
	l-1.2,1.3c1,1.6,1.3,3.7,0.6,5.6c-1.1,3.3-4.6,5-7.7,3.9c-0.4-0.2-0.9-0.4-1.2-0.6l-3.9,4.2L46.8,20c-1.6,1.1-3.6,1.5-5.6,0.7
	c-3.2-1.2-4.9-5-3.8-8.4c0.2-0.5,0.4-1,0.7-1.4l-1.5-1.6l-0.3,0.5c-1.5,2.7-2.4,5.7-2.4,8.9c0,9.4,7.2,17.1,16.2,17.1h0
	c8.9,0,16.2-7.7,16.2-17.1c0-3.1-0.8-6.2-2.3-8.9L63.8,9.4z M40,12.8c-0.4,0.6-0.7,1.3-0.7,2.1c0,1.9,1.5,3.5,3.3,3.5
	c0.8,0,1.4-0.3,2-0.7L40,12.8z M56.2,17.4c0.5,0.4,1.2,0.6,1.8,0.6c1.8,0,3.3-1.6,3.3-3.5c0-0.7-0.2-1.4-0.6-1.9L56.2,17.4z
	 M50.3,21L36.9,6.9l0.5-0.6c3.3-3.7,7.8-5.8,12.7-5.8h0c4.9,0,9.6,2.2,12.9,6l0.5,0.6L50.3,21z M39.1,6.9l11.2,11.8l11-11.6
	c-3-3.1-7-4.9-11.2-4.9h0C46,2.2,42.1,3.8,39.1,6.9L39.1,6.9z M35.6,30.2L34,30.1c-6.6-0.5-15.8-2.2-21.8-7.8
	c-3.6-3.5-4.3-6.7-4.4-6.9l-0.2-1h24.2l-0.1,0.9c-0.1,0.9-0.2,1.7-0.2,2.6c0,3.9,1.1,7.7,3.1,10.9L35.6,30.2z M64.9,30.2l0.9-1.4
	c2-3.2,3.1-7,3.1-10.8c0-0.9-0.1-1.8-0.2-2.7l-0.1-0.9h24.2l-0.2,1c0,0.1-0.7,3.4-4.4,6.9c-5.9,5.6-15.1,7.4-21.8,7.8L64.9,30.2z"/>
</svg>
