<svg xmlns="http://www.w3.org/2000/svg" viewBox="0 0 154 153.51"><title>r_d</title><path d="M152.6,72.2a2.25,2.25,0,0,0-2.46.49l-6.77,6.77v-46a2.26,2.26,0,0,0-2.26-2.26H123.74l6.31-6.3h0l6.08-6.07a6.92,6.92,0,0,0,0-9.75l-7-7a6.89,6.89,0,0,0-9.75,0L113.28,8.1l-7.35,7.34L90.2,31.17H20V8.81a2.26,2.26,0,0,0-2.26-2.26A17.8,17.8,0,0,0,0,24.33v96a2.63,2.63,0,0,0,.05.49,17.12,17.12,0,0,0,17.07,15.82H86.19l-13,13a2.26,2.26,0,0,0,1.6,3.86h77a2.26,2.26,0,0,0,2.26-2.26v-77A2.26,2.26,0,0,0,152.6,72.2Zm-30-67a2.36,2.36,0,0,1,3.35,0l7,7a2.38,2.38,0,0,1,0,3.35l-4.48,4.48L118.07,9.69Zm-7.68,7.67,10.38,10.38-4.14,4.15L110.73,17Zm34.61,86.8h-4.17a2.26,2.26,0,0,0,0,4.52h4.17V111h-4.17a2.26,2.26,0,1,0,0,4.52h4.17v6.81h-4.17a2.26,2.26,0,1,0,0,4.52h4.17v6.81h-4.17a2.27,2.27,0,0,0,0,4.53h4.17V149H80.24l22.83-22.84a2.26,2.26,0,0,0,0-3.19,2.69,2.69,0,0,0-.32-.27,2.28,2.28,0,0,0-2.88.27l-9.16,9.16H17.12a12.53,12.53,0,0,1-12.59-12.2c0-.43,0-.85.1-1.27h0l.09-.6V118c0-.18.07-.36.11-.53l0-.15.12-.44.06-.24c0-.11.07-.23.11-.34s.07-.22.11-.34a2.09,2.09,0,0,0,.08-.23l.18-.44s0-.09,0-.13l.24-.53v0a13.34,13.34,0,0,1,9.25-7.23h0l.56-.1h.1l.52-.07.14,0,.51,0h.83A2.26,2.26,0,0,0,20,104.82V88.43a2.26,2.26,0,1,0-4.52,0V102.7a17.65,17.65,0,0,0-10.16,4.91c-.29.29-.57.59-.84.89V24.33a13.29,13.29,0,0,1,11-13.07V79.38h0a2.26,2.26,0,1,0,4.52,0h0V35.69H85.68l-12.5,12.5a2.26,2.26,0,0,0,3.2,3.19L92.74,35h0l14.79-14.79,10.38,10.37-1.22,1.22h0L71.11,77.41,60.73,67l9-9a2.26,2.26,0,1,0-3.2-3.2L55.94,65.43l-.16.18-.05.07-.09.13,0,.07c0,.05-.05.09-.07.13l0,.09-.06.13a.43.43,0,0,1,0,0L51,78.76l-3,8.5a2,2,0,0,0-.09.35H40.39a2.26,2.26,0,0,0,0,4.52H103a2.26,2.26,0,0,0,0-4.52H58.08l13.78-4.87h0l.16-.07.06,0,.16-.09,0,0,.16-.11,0,0,.18-.16,46.51-46.52h19.63V84l-32.33,32.34a2.24,2.24,0,0,0,0,3.19,1.29,1.29,0,0,0,.17.16,2.28,2.28,0,0,0,2.85,0,1.29,1.29,0,0,0,.17-.16h0l39.76-39.76ZM67,79.67,60.5,82l-4.31-4.32,2.28-6.47Z"/></svg>