<svg xmlns="http://www.w3.org/2000/svg" viewBox="0 0 176.4 154.39"><title>smart</title><path d="M96.42,0H8.27A8.28,8.28,0,0,0,0,8.27V151.64a2.75,2.75,0,0,0,2.76,2.75h99.17a2.75,2.75,0,0,0,2.76-2.75V8.27A8.28,8.28,0,0,0,96.42,0ZM5.51,16.54H99.17V148.88H5.51Zm2.76-11h2.81a2.76,2.76,0,1,0,2.79,2.76,2.75,2.75,0,0,0-2.79-2.76h8.24a2.76,2.76,0,1,0,2.78,2.76,2.75,2.75,0,0,0-2.78-2.76h8.25a2.76,2.76,0,1,0,2.79,2.76,2.75,2.75,0,0,0-2.79-2.76H96.42a2.76,2.76,0,0,1,2.75,2.76V11H5.51V8.27A2.77,2.77,0,0,1,8.27,5.51Z"/><path d="M13.74,102a2.75,2.75,0,0,0,2.76,2.75H88.15A2.75,2.75,0,0,0,90.9,102V68.93a2.75,2.75,0,0,0-2.75-2.76H16.5a2.75,2.75,0,0,0-2.76,2.76v9.89L9,83.53a2.75,2.75,0,0,0,0,3.9l4.71,4.7Zm4.71-20.09a2.79,2.79,0,0,0,.8-2V71.68H85.39V99.24H19.25V91a2.79,2.79,0,0,0-.8-1.95l-3.57-3.56Z"/><path d="M27.52,84.08h49.6a2.76,2.76,0,1,0,0-5.51H27.52a2.76,2.76,0,0,0,0,5.51Z"/><path d="M27.52,92.35h24.8a2.76,2.76,0,1,0,0-5.51H27.52a2.76,2.76,0,0,0,0,5.51Z"/><path d="M95.61,39.42,90.9,34.71V24.82a2.75,2.75,0,0,0-2.76-2.75H16.5a2.75,2.75,0,0,0-2.76,2.75V57.89a2.75,2.75,0,0,0,2.76,2.76H88.14a2.75,2.75,0,0,0,2.76-2.76V48l4.71-4.71a2.75,2.75,0,0,0,0-3.9Zm-9.42,5.52a2.72,2.72,0,0,0-.81,2v8.25H19.25V27.58H85.38v8.28a2.72,2.72,0,0,0,.81,1.94l3.57,3.57Z"/><path d="M77.12,34.47H27.52a2.76,2.76,0,0,0,0,5.51h49.6a2.76,2.76,0,1,0,0-5.51Z"/><path d="M52.32,42.74H27.52a2.76,2.76,0,0,0,0,5.51h24.8a2.76,2.76,0,1,0,0-5.51Z"/><path d="M16.35,135.09H88a2.76,2.76,0,0,0,2.76-2.74L90.91,113a2.8,2.8,0,0,0-.81-2,2.76,2.76,0,0,0-1.95-.81H16.47A2.76,2.76,0,0,0,13.71,113l-.11,19.3a2.71,2.71,0,0,0,.8,2,2.75,2.75,0,0,0,2,.82Zm2.86-19.31H85.38l-.09,13.79H19.13Z"/><path d="M46.78,137.86H16.47a2.76,2.76,0,1,0,0,5.51h30.3a2.76,2.76,0,1,0,0-5.51Z"/><path d="M88.22,137.86h0a2.73,2.73,0,0,0-2.74,2.75,2.76,2.76,0,1,0,2.77-2.75Z"/><path d="M80,137.86h0a2.73,2.73,0,0,0-2.74,2.75A2.76,2.76,0,1,0,80,137.86Z"/><path d="M146.08,88.36V79.44a8.28,8.28,0,1,0-5.51,0v8.93a33.11,33.11,0,0,0-30.33,32.94v30.33a2.75,2.75,0,0,0,2.76,2.75h60.64a2.75,2.75,0,0,0,2.76-2.75V121.3a33.1,33.1,0,0,0-30.32-32.94Zm-2.75-19.45a2.76,2.76,0,1,1-2.75,2.76A2.76,2.76,0,0,1,143.33,68.91Zm-13.77,77.2h5.5v2.76h-5.5Zm16.53,0v2.76h-5.51v-2.76Zm11,0v2.76H151.6v-2.76Zm13.78,2.76h-8.26v-5.52a2.77,2.77,0,0,0-2.76-2.76H126.8a2.76,2.76,0,0,0-2.76,2.76v5.52h-8.29V121.3a27.57,27.57,0,0,1,55.14,0Z"/><path d="M148.85,121.3a8.27,8.27,0,1,0,8.27-8.27A8.28,8.28,0,0,0,148.85,121.3Zm11,0a2.76,2.76,0,1,1-2.75-2.76A2.76,2.76,0,0,1,159.87,121.3Z"/><path d="M129.55,113a8.27,8.27,0,1,0,8.27,8.27A8.28,8.28,0,0,0,129.55,113Zm0,11a2.76,2.76,0,1,1,2.76-2.76A2.77,2.77,0,0,1,129.55,124.06Z"/><path d="M149.64,37.79a2.78,2.78,0,0,0,3.9,0L159,32.3l0,0a2.78,2.78,0,0,0,0-3.9l0,0-5.48-5.49a2.76,2.76,0,1,0-3.9,3.9l3.56,3.56-3.56,3.56a2.75,2.75,0,0,0,0,3.9Z"/><path d="M133.1,37.79a2.76,2.76,0,1,0,3.9-3.9l-3.56-3.56L137,26.77a2.76,2.76,0,1,0-3.9-3.9l-5.49,5.49s0,0,0,0a2.76,2.76,0,0,0,0,3.91h0Z"/><path d="M139.9,44a2.56,2.56,0,0,0,.67.08A2.75,2.75,0,0,0,143.24,42L148.75,20a2.76,2.76,0,1,0-5.35-1.33L137.89,40.7a2.75,2.75,0,0,0,2,3.34Z"/><path d="M143.32,57.9a27.57,27.57,0,1,0-27.57-27.57A27.6,27.6,0,0,0,143.32,57.9Zm0-49.62a22.06,22.06,0,1,1-22,22A22.08,22.08,0,0,1,143.32,8.28Z"/></svg>