<svg xmlns="http://www.w3.org/2000/svg" viewBox="0 0 154 154"><title>support</title><path d="M141.17,0H12.83A12.85,12.85,0,0,0,0,12.83v97.54A12.85,12.85,0,0,0,12.83,123.2H61.4c-1.1,7.88-7,15.4-12.63,15.4a7.7,7.7,0,0,0,0,15.4h56.46a7.7,7.7,0,0,0,0-15.4c-5.62,0-11.53-7.52-12.63-15.4h48.57A12.85,12.85,0,0,0,154,110.37V12.83A12.85,12.85,0,0,0,141.17,0ZM12.83,5.13H141.17a7.7,7.7,0,0,1,7.7,7.7v7.7H123.2a2.57,2.57,0,0,0,0,5.14h25.67V77h-5.14a2.57,2.57,0,0,0,0,5.13h5.14v15.4H5.13V82.13h69.3A2.57,2.57,0,0,0,77,79.57,33.35,33.35,0,0,0,10.4,77H5.13V25.67h92.4a2.57,2.57,0,0,0,0-5.14H5.13v-7.7A7.7,7.7,0,0,1,12.83,5.13ZM53.15,70.05a2.57,2.57,0,0,0-3.63,0l-7,7h-27a28.23,28.23,0,0,1,56.23,0H49.83l3.32-3.32A2.57,2.57,0,0,0,53.15,70.05Zm52.08,78.82H48.77a2.57,2.57,0,0,1,0-5.14h56.46a2.57,2.57,0,0,1,0,5.14ZM94.63,138.6H59.37a26.7,26.7,0,0,0,7.22-15.4H87.41A26.7,26.7,0,0,0,94.63,138.6Zm54.24-28.23a7.7,7.7,0,0,1-7.7,7.7H12.83a7.7,7.7,0,0,1-7.7-7.7v-7.7H148.87Z"/><path d="M79.57,110.37A2.57,2.57,0,1,1,77,107.8,2.57,2.57,0,0,1,79.57,110.37Z"/><path d="M95.81,33.59a5.09,5.09,0,0,0-7.19,0l-3.7,3.7a5.08,5.08,0,0,0,0,7.18l2.67,2.76a22.48,22.48,0,0,0-1.65,4.11H82.09A5.09,5.09,0,0,0,77,56.42v5.23a5.08,5.08,0,0,0,5.08,5.08l3.84.06a22.12,22.12,0,0,0,1.73,4.07l-2.73,2.73a5.09,5.09,0,0,0,0,7.19l3.7,3.7a5.09,5.09,0,0,0,7.19,0l2.76-2.67a22.39,22.39,0,0,0,4.1,1.65v3.85a5.08,5.08,0,0,0,5.08,5.09H113a5.1,5.1,0,0,0,5.09-5.08l.06-3.84a22,22,0,0,0,4.06-1.73l2.73,2.73a5.09,5.09,0,0,0,7.19,0l3.7-3.7a5.09,5.09,0,0,0,0-7.19l-2.67-2.75a22.52,22.52,0,0,0,1.66-4.11h3.85a5.08,5.08,0,0,0,5.08-5.08V56.42a5.09,5.09,0,0,0-5.08-5.09l-3.83-.06a22.07,22.07,0,0,0-1.74-4.06l2.73-2.73a5.08,5.08,0,0,0,0-7.19l-3.7-3.7a5.08,5.08,0,0,0-7.19,0l-2.75,2.67a22.42,22.42,0,0,0-4.1-1.66V30.75A5.1,5.1,0,0,0,113,25.67h-5.23a5.07,5.07,0,0,0-5.08,5.08l-.07,3.83a22.77,22.77,0,0,0-4.06,1.74Zm8.35,5.9a5.15,5.15,0,0,0,3.64-4.89l0-3.8,5.18-.05V34.6a5.15,5.15,0,0,0,3.64,4.88,20.58,20.58,0,0,1,3.22,1.33,5.13,5.13,0,0,0,6-.86l2.66-2.73,3.7,3.63-2.73,2.73a5.14,5.14,0,0,0-.86,6,21,21,0,0,1,1.33,3.22,5.16,5.16,0,0,0,4.88,3.65l3.8,0V61.6h-3.8a5.14,5.14,0,0,0-4.88,3.64,19.71,19.71,0,0,1-1.34,3.22,5.14,5.14,0,0,0,.87,6l2.73,2.66-3.63,3.7-2.73-2.73a5.14,5.14,0,0,0-6-.86,21,21,0,0,1-3.22,1.33,5.15,5.15,0,0,0-3.65,4.87l0,3.81-5.18,0V83.47a5.13,5.13,0,0,0-3.64-4.88,19.71,19.71,0,0,1-3.22-1.34,5.37,5.37,0,0,0-2.45-.6,5,5,0,0,0-3.58,1.47l-2.66,2.73-3.7-3.63,2.73-2.73a5.14,5.14,0,0,0,.87-6,19.71,19.71,0,0,1-1.34-3.22,5.13,5.13,0,0,0-4.87-3.64l-3.81,0,0-5.18h3.85a5.15,5.15,0,0,0,4.88-3.65,20.08,20.08,0,0,1,1.34-3.22,5.12,5.12,0,0,0-.87-6l-2.73-2.66,3.63-3.7L94.91,40a5.15,5.15,0,0,0,6,.86,20.58,20.58,0,0,1,3.22-1.33Z"/><path d="M110.37,74.43A15.4,15.4,0,1,0,95,59,15.4,15.4,0,0,0,110.37,74.43Zm0-25.66A10.27,10.27,0,1,1,100.1,59,10.26,10.26,0,0,1,110.37,48.77Z"/><path d="M112.93,59a2.57,2.57,0,1,1-2.56-2.56A2.57,2.57,0,0,1,112.93,59Z"/><path d="M15.4,12.83a2.57,2.57,0,1,1-2.57-2.56A2.57,2.57,0,0,1,15.4,12.83Z"/><path d="M25.67,12.83a2.57,2.57,0,1,1-2.57-2.56A2.57,2.57,0,0,1,25.67,12.83Z"/><path d="M35.93,12.83a2.57,2.57,0,1,1-2.56-2.56A2.57,2.57,0,0,1,35.93,12.83Z"/><path d="M46.2,59a2.57,2.57,0,1,1-2.57-2.56A2.57,2.57,0,0,1,46.2,59Z"/><path d="M56.47,64.17A2.57,2.57,0,1,1,53.9,61.6,2.57,2.57,0,0,1,56.47,64.17Z"/><path d="M64.17,71.87A2.57,2.57,0,1,1,61.6,69.3,2.57,2.57,0,0,1,64.17,71.87Z"/><path d="M35.93,64.17a2.57,2.57,0,1,1-2.56-2.57A2.56,2.56,0,0,1,35.93,64.17Z"/><path d="M28.23,71.87a2.57,2.57,0,1,1-2.56-2.57A2.56,2.56,0,0,1,28.23,71.87Z"/><path d="M57.27,38.11A44,44,0,0,0,40.92,36a2.57,2.57,0,0,0-2,4,2.59,2.59,0,0,0,2.3,1.15A39.11,39.11,0,0,1,55.67,43a2.56,2.56,0,1,0,1.6-4.87Z"/><path d="M24.54,40.32a43.67,43.67,0,0,0-10.9,7.56,2.57,2.57,0,0,0,3.53,3.73,38.52,38.52,0,0,1,9.62-6.67,2.57,2.57,0,0,0-2.25-4.63Z"/></svg>