<?xml version="1.0" encoding="utf-8"?>
<!-- Generator: Adobe Illustrator 23.0.4, SVG Export Plug-In . SVG Version: 6.00 Build 0)  -->
<svg version="1.1" id="Layer_1" xmlns="http://www.w3.org/2000/svg" xmlns:xlink="http://www.w3.org/1999/xlink" x="0px" y="0px"
	 viewBox="0 0 209.1 268" style="enable-background:new 0 0 209.1 268;" xml:space="preserve">
<style type="text/css">
	.st0{fill:#FFFFFF;}
</style>
<title>the-graph</title>
<path class="st0" d="M96,161.8c-29.8,0-54-24.2-54-54s24.2-54,54-54s54,24.2,54,54C149.9,137.7,125.8,161.8,96,161.8z M96,71.8
	c-19.9,0-36,16.1-36,36s16.1,36,36,36s36-16.1,36-36c0,0,0,0,0,0C132,88,115.9,71.9,96,71.8z"/>
<path class="st0" d="M104.1,214.1c-5,0-9-4-9-9c0-2.4,1-4.7,2.7-6.4l36.3-35.7c3.7-3.3,9.3-3,12.7,0.6c3.1,3.5,3.1,8.8-0.1,12.2
	l-36.3,35.7C108.7,213.2,106.5,214.1,104.1,214.1z"/>
<circle class="st0" cx="157.9" cy="63.5" r="9.1"/>
</svg>
