<?xml version="1.0" encoding="utf-8"?>
<!-- Generator: Adobe Illustrator 23.0.4, SVG Export Plug-In . SVG Version: 6.00 Build 0)  -->
<svg version="1.1" id="Layer_1" xmlns="http://www.w3.org/2000/svg" xmlns:xlink="http://www.w3.org/1999/xlink" x="0px" y="0px"
	 viewBox="0 0 170.1 268" style="enable-background:new 0 0 170.1 268;" xml:space="preserve">
<style type="text/css">
	.st0{fill:#FFFFFF;}
</style>
<title>the-graph</title>
<g>
	<path class="st0" d="M77,162.5c-26.9,0-48.7-21.8-48.7-48.7S50.1,65.1,77,65.1s48.7,21.8,48.7,48.7
		C125.6,140.8,103.9,162.5,77,162.5z M77,81.3c-17.9,0-32.5,14.5-32.5,32.5S59,146.3,77,146.3s32.5-14.5,32.5-32.5l0,0
		C109.4,95.9,94.9,81.4,77,81.3z"/>
	<path class="st0" d="M84.3,209.6c-4.5,0-8.1-3.6-8.1-8.1c0-2.2,0.9-4.2,2.4-5.8l32.7-32.2c3.3-3,8.4-2.7,11.5,0.5
		c2.8,3.2,2.8,7.9-0.1,11L90,207.3C88.4,208.8,86.5,209.6,84.3,209.6z"/>
	<circle class="st0" cx="132.8" cy="73.9" r="8.2"/>
</g>
<g>
	<defs>
		<rect id="SVGID_1_" x="168.3" y="2.4" width="228.7" height="296.2"/>
	</defs>
	<clipPath id="SVGID_2_">
		<use xlink:href="#SVGID_1_"  style="overflow:visible;"/>
	</clipPath>
	<g transform="matrix(1 0 0 1 0 3.814697e-06)" style="clip-path:url(#SVGID_2_);">
		
			<image style="overflow:visible;" width="500" height="500" xlink:href="the-graph.png"  transform="matrix(0.8104 0 0 0.8104 -8.2093 -60.5465)">
		</image>
	</g>
</g>
</svg>
